<svg width="85" height="85" viewBox="0 0 85 85" fill="none" xmlns="http://www.w3.org/2000/svg">
<path opacity="0.4" fill-rule="evenodd" clip-rule="evenodd" d="M0.484375 4.11024C0.484375 1.98152 2.21004 0.255859 4.33876 0.255859H81.1456C83.2743 0.255859 85 1.98153 85 4.11024V80.9171C85 83.0458 83.2743 84.7715 81.1456 84.7715H10.5795C10.571 84.7716 10.5626 84.7716 10.5541 84.7715H4.33876C2.21004 84.7715 0.484375 83.0458 0.484375 80.9171V4.11024ZM12.7143 82.9925H81.1456C82.2918 82.9925 83.221 82.0633 83.221 80.9171V56.6716L61.1281 34.5787L12.7143 82.9925ZM83.221 54.1558L61.757 32.6918C61.4097 32.3445 60.8465 32.3445 60.4991 32.6918L10.1985 82.9925H4.33876C3.19253 82.9925 2.26332 82.0633 2.26332 80.9171V4.11024C2.26332 2.96401 3.19253 2.03481 4.33876 2.03481H81.1456C82.2918 2.03481 83.221 2.96401 83.221 4.11024V54.1558ZM18.8703 26.4261C18.8703 22.127 22.3554 18.6419 26.6545 18.6419C30.9536 18.6419 34.4387 22.127 34.4387 26.4261C34.4387 30.7252 30.9536 34.2103 26.6545 34.2103C22.3554 34.2103 18.8703 30.7252 18.8703 26.4261ZM26.6545 20.4208C23.3379 20.4208 20.6492 23.1095 20.6492 26.4261C20.6492 29.7427 23.3379 32.4313 26.6545 32.4313C29.9711 32.4313 32.6597 29.7427 32.6597 26.4261C32.6597 23.1095 29.9711 20.4208 26.6545 20.4208Z" fill="#105C9B"/>
</svg>
