<svg width="157" height="112" viewBox="0 0 157 112" fill="none" xmlns="http://www.w3.org/2000/svg">
<rect x="1.31055" y="1.38574" width="154.25" height="109.229" stroke="#105C9B" stroke-width="2"/>
<path d="M7.32959 7.40479H149.542V104.596H7.32959V7.40479Z" stroke="#105C9B"/>
<path d="M4.31641 7.84114V5.85883H4.81641V5.36768H5.31806V4.86768H7.32126V5.36768H9.32446V4.86768H11.3277V5.36768H13.3309V4.86768H15.3341V5.36768H17.3373V4.86768H19.3405V5.36768H21.3437V4.86768H23.3469V5.36768H25.3501V4.86768H27.3533V5.36768H29.3565V4.86768H31.3597V5.36768H33.3629V4.86768H35.3661V5.36768H37.3693V4.86768H39.3725V5.36768H41.3757V4.86768H43.3789V5.36768H45.3821V4.86768H47.3853V5.36768H49.3886V4.86768H51.3918V5.36768H53.395V4.86768H55.3982V5.36768H57.4014V4.86768H59.4046V5.36768H61.4078V4.86768H63.411V5.36768H65.4142V4.86768H67.4174V5.36768H69.4206V4.86768H71.4238V5.36768H73.427V4.86768H75.4302V5.36768H77.4334V4.86768H79.4366V5.36768H81.4398V4.86768H83.443V5.36768H85.4462V4.86768H87.4494V5.36768H89.4526V4.86768H91.4558V5.36768H93.4591V4.86768H95.4623V5.36768H97.4655V4.86768H99.4687V5.36768H101.472V4.86768H103.475V5.36768H105.478V4.86768H107.481V5.36768H109.485V4.86768H111.488V5.36768H113.491V4.86768H115.494V5.36768H117.498V4.86768H119.501V5.36768H121.504V4.86768H123.507V5.36768H125.51V4.86768H127.514V5.36768H129.517V4.86768H131.52V5.36768H133.523V4.86768H135.526V5.36768H137.53V4.86768H139.533V5.36768H141.536V4.86768H143.539V5.36768H145.542V4.86768H147.546V5.36768H149.549V4.86768H151.552V5.36768H152.054V5.85877H152.554V7.84108H152.054V9.82339H152.554V11.8057H152.054V13.788H152.554V15.7703H152.054V17.7527H152.554V19.735H152.054V21.7173H152.554V23.6996H152.054V25.6819H152.554V27.6642H152.054V29.6465H152.554V31.6289H152.054V33.6112H152.554V35.5935H152.054V37.5758H152.554V39.5581H152.054V41.5404H152.554V43.5227H152.054V45.5051H152.554V47.4874H152.054V49.4697H152.554V51.452H152.054V53.4343H152.554V55.4166H152.054V57.3989H152.554V59.3812H152.054V61.3635H152.554V63.3459H152.054V65.3282H152.554V67.3105H152.054V69.2928H152.554V71.2751H152.054V73.2574H152.554V75.2397H152.054V77.222H152.554V79.2043H152.054V81.1867H152.554V83.169H152.054V85.1513H152.554V87.1336H152.054V89.1159H152.554V91.0982H152.054V93.0805H152.554V95.0628H152.054V97.0452H152.554V99.0275H152.054V101.01H152.554V102.992H152.054V104.974H152.554V106.957H152.054V107.448H151.552V107.948H149.549V107.448H147.546V107.948H145.542V107.448H143.539V107.948H141.536V107.448H139.533V107.948H137.53V107.448H135.526V107.948H133.523V107.448H131.52V107.948H129.517V107.448H127.513V107.948H125.51V107.448H123.507V107.948H121.504V107.448H119.501V107.948H117.497V107.448H115.494V107.948H113.491V107.448H111.488V107.948H109.485V107.448H107.481V107.948H105.478V107.448H103.475V107.948H101.472V107.448H99.4686V107.948H97.4654V107.448H95.4622V107.948H93.459V107.448H91.4558V107.948H89.4526V107.448H87.4494V107.948H85.4462V107.448H83.443V107.948H81.4398V107.448H79.4366V107.948H77.4334V107.448H75.4302V107.948H73.427V107.448H71.4238V107.948H69.4206V107.448H67.4174V107.948H65.4141V107.448H63.4109V107.948H61.4077V107.448H59.4045V107.948H57.4013V107.448H55.3981V107.948H53.3949V107.448H51.3917V107.948H49.3885V107.448H47.3853V107.948H45.3821V107.448H43.3789V107.948H41.3757V107.448H39.3725V107.948H37.3693V107.448H35.3661V107.948H33.3629V107.448H31.3597V107.948H29.3565V107.448H27.3533V107.948H25.3501V107.448H23.3469V107.948H21.3437V107.448H19.3404V107.948H17.3372V107.448H15.334V107.948H13.3308V107.448H11.3276V107.948H9.32442V107.448H7.32121V107.948H5.31801V107.448H4.81641V106.957H4.31641V104.974H4.81641V102.992H4.31641V101.01H4.81641V99.0275H4.31641V97.0452H4.81641V95.0629H4.31641V93.0806H4.81641V91.0983H4.31641V89.1159H4.81641V87.1336H4.31641V85.1513H4.81641V83.169H4.31641V81.1867H4.81641V79.2044H4.31641V77.222H4.81641V75.2397H4.31641V73.2574H4.81641V71.2751H4.31641V69.2928H4.81641V67.3105H4.31641V65.3282H4.81641V63.3459H4.31641V61.3635H4.81641V59.3812H4.31641V57.3989H4.81641V55.4166H4.31641V53.4343H4.81641V51.452H4.31641V49.4697H4.81641V47.4874H4.31641V45.5051H4.81641V43.5227H4.31641V41.5404H4.81641V39.5581H4.31641V37.5758H4.81641V35.5935H4.31641V33.6112H4.81641V31.6289H4.31641V29.6466H4.81641V27.6643H4.31641V25.6819H4.81641V23.6996H4.31641V21.7173H4.81641V19.735H4.31641V17.7527H4.81641V15.7704H4.31641V13.7881H4.81641V11.8058H4.31641V9.82345H4.81641V7.84114H4.31641Z" stroke="#CF3110" stroke-dasharray="2 2"/>
</svg>
