<svg width="111" height="109" viewBox="0 0 111 109" fill="none" xmlns="http://www.w3.org/2000/svg">
<path fill-rule="evenodd" clip-rule="evenodd" d="M91.8136 12.5291C93.428 12.5331 93.4283 12.6205 93.4345 14.4989V24.1712C94.0675 24.1712 94.6879 24.1814 95.299 24.1915C96.7066 24.2147 98.0648 24.2371 99.4134 24.1318C100.488 23.9517 101.572 24.3902 102.223 25.2678V27.1983L98.6816 28.7808C98.5836 30.5143 98.0281 31.2366 96.1462 31.5584C95.5927 31.6559 95.0341 31.7131 94.4736 31.7706C94.1277 31.8061 93.7811 31.8416 93.4345 31.8867C90.5071 32.261 87.6581 32.8585 85.639 35.3078C84.8378 36.2813 84.0679 37.2863 83.2989 38.29L83.2984 38.2908L83.2969 38.2927L83.2963 38.2935C82.9562 38.7374 82.6161 39.1814 82.2738 39.6219C83.1648 40.6342 83.1626 40.6398 82.6392 41.9892L82.6201 42.0384C78.6759 52.4836 72.8229 62.0956 65.3629 70.379C62.8627 73.1117 60.7276 76.1601 59.0115 79.4472C56.8574 83.6489 55.9728 103.142 55.5024 107.767L55.3621 107.767L55.3619 109H41.6971C41.4485 100.331 41.3217 78.7596 41.3166 74.159L41.3164 73.8723C41.3164 69.9322 41.3164 69.9322 37.7145 68.6512L37.6245 68.6192C36.4156 68.1924 35.4028 68.1333 34.3116 68.941C33.2796 69.6951 32.1687 70.3336 30.9987 70.8452C29.8159 71.364 29.6134 72.1585 29.6918 73.347C29.9336 79.6311 30.1231 100.853 30.306 107.13C30.3243 107.753 30.3417 108.377 30.3584 109H0.971696C0.967828 108.919 0.963998 108.839 0.960206 108.758C0.646556 102.113 0.404785 80.5044 1.61364 73.9183C2.64565 67.5038 6.75011 62.0093 12.5914 59.2227C13.5025 58.7616 13.4295 58.1914 13.3393 57.4866L13.3363 57.4629C13.2899 57.109 13.244 56.7551 13.1982 56.4012L13.1978 56.398C12.9793 54.7112 12.761 53.0259 12.4803 51.3496C12.4175 50.6342 12.1547 49.9513 11.7223 49.3796C9.37597 47.0796 8.04999 43.9271 8.04345 40.6332C8.04345 37.6323 8.37671 34.7234 10.9186 32.6747C11.6884 32.1254 12.1897 31.2731 12.2973 30.3305C13.1991 24.1909 16.4858 19.8242 22.2622 17.6245C28.2738 15.3065 34.0241 16.4228 39.1209 20.0081C42.6189 22.4736 45.9272 25.2074 49.2159 27.9636L51.0087 29.4677C51.6064 29.9689 52.2044 30.4693 52.8038 30.9674C54.8883 32.701 54.9798 34.0011 53.5422 36.3256C53.2453 36.8421 52.8605 37.3021 52.4052 37.6849C51.6342 38.2693 51.6865 38.8602 51.9348 39.7073C51.99 39.8993 52.0471 40.0923 52.1044 40.2862L52.1046 40.2868C52.4747 41.5382 52.8547 42.8233 52.8038 44.074C52.6954 46.8583 51.5613 49.5028 49.6216 51.494C48.3169 52.73 46.9353 53.8814 45.4853 54.9414L46.1845 60.4834C46.6545 60.2576 47.1232 60.0436 47.5869 59.8319C48.5931 59.3724 49.5757 58.9236 50.4972 58.3887C55.1954 55.598 58.8939 51.6582 62.4551 47.5804C65.1472 44.5008 67.6826 41.3226 68.5974 37.1924C68.7019 36.7327 68.7019 35.9645 68.434 35.7543C66.319 34.0419 64.1019 32.4609 61.7951 31.02L61.7419 30.9898L61.6379 30.9311C60.5518 30.3183 59.6739 29.8231 59.9982 28.2752H57.2864C55.8162 28.2292 55.2542 27.5398 55.3261 25.931C55.3849 24.6571 56.1494 24.0464 57.5086 24.0858C58.2577 24.1086 59.0081 24.1116 59.7608 24.1147C60.7478 24.1187 61.7388 24.1228 62.7361 24.1712C63.8077 24.1712 64.1605 23.7509 64.1409 22.6872C64.1131 21.1708 64.1149 19.6526 64.1168 18.1344C64.1184 16.806 64.12 15.4777 64.1017 14.1509C64.1017 12.9689 64.4546 12.5224 65.6634 12.5289L91.8136 12.5291ZM42.3489 56.4188C40.4681 57.3536 38.6537 58.4177 36.9188 59.6035C35.9621 60.3481 34.6315 60.3695 33.6516 59.6561C31.5476 58.4478 29.3585 57.3775 27.163 56.3729C26.1959 55.9198 25.5751 56.4911 25.7124 57.522C25.7761 57.7859 25.8241 58.0534 25.8561 58.3231C25.8561 61.0956 25.8782 63.8681 25.9002 66.6407C25.9076 67.565 25.9149 68.4894 25.9215 69.4137C25.9215 70.9437 26.6272 71.3246 27.9602 70.5563C28.4431 70.2767 28.928 69.999 29.4133 69.7212L29.4138 69.7209L29.4143 69.7206L29.4148 69.7203C30.6952 68.9871 31.9781 68.2526 33.2334 67.4767C34.965 66.4063 36.5725 66.1043 38.4609 67.017C39.8631 67.5583 41.2941 68.0209 42.7474 68.4025C43.9106 68.8031 44.27 68.2252 44.2896 67.214C44.2965 66.856 44.3075 66.4725 44.3189 66.0777L44.3189 66.077C44.3396 65.3569 44.3614 64.5995 44.3614 63.8914H44.4072C44.3757 63.2975 44.3431 62.7036 44.3106 62.1095L44.3105 62.109C44.2283 60.6081 44.146 59.1059 44.0805 57.6008C44.0216 56.1693 43.6753 55.7884 42.3489 56.4188ZM14.5833 53.2542C14.7048 54.2302 14.8151 55.1161 14.8196 56.0051C14.8196 58.4872 16.0088 60.0566 18.224 61.0219C19.0724 61.4654 19.889 61.9679 20.6678 62.5256C21.4837 63.0431 22.3155 63.5527 23.2005 64.0948L23.2011 64.0952L23.2016 64.0955C23.4503 64.2478 23.7032 64.4028 23.9612 64.5612V57.8175C23.9293 57.5509 23.7839 57.3113 23.5626 57.1608C21.1792 55.7523 18.7916 54.3607 16.2812 52.8975L16.2787 52.8961C15.6652 52.5385 15.0444 52.1766 14.4145 51.8092C14.4666 52.3169 14.5262 52.795 14.5832 53.2534L14.5833 53.2542ZM17.8254 22.6281C15.3881 24.9592 14.4145 27.8812 14.042 31.1644C18.2372 30.7506 22.456 31.6692 26.1044 33.791C28.5744 35.1634 29.0972 36.8772 27.8295 39.3856C26.9996 41.0272 26.5814 41.0928 25.2158 39.9043C24.7441 39.4763 24.211 39.1222 23.6344 38.8537C22.2222 38.2032 20.5554 38.5161 19.4721 39.6351C17.8973 41.3358 18.3612 43.3188 18.897 45.2231C19.2843 46.5788 20.4535 46.5427 21.5717 46.5082L21.6086 46.507C21.648 46.5058 21.6872 46.5047 21.7264 46.5035C22.8895 46.4707 23.4449 47.1208 23.4515 48.3093C23.6002 50.4021 22.4303 52.365 20.5241 53.221C20.8791 53.4321 21.2193 53.6373 21.5499 53.8367C22.3812 54.3381 23.1515 54.8028 23.9416 55.2303C24.2224 55.3566 24.5469 55.337 24.8106 55.1778C26.1175 53.9564 27.4701 54.3373 28.8358 55.053C29.1633 55.2265 29.4908 55.4002 29.8184 55.5739C31.301 56.3602 32.7845 57.1469 34.2724 57.916C34.2988 57.9297 34.326 57.944 34.354 57.9587C34.7 58.1407 35.154 58.3794 35.3898 58.264C36.3475 57.7828 37.2595 57.2381 38.1697 56.6946L38.1706 56.694C38.5022 56.496 38.8335 56.2982 39.1666 56.1036L39.0359 55.7491C38.3772 55.7584 37.7195 55.6923 37.0756 55.5521C36.5333 55.3682 35.7099 54.8954 35.6838 54.5146C35.6334 53.6759 36.2839 53.6719 36.9029 53.6879L37.0565 53.6918C37.1072 53.693 37.1573 53.6938 37.2063 53.6938C37.7316 53.6938 38.2604 53.7125 38.7896 53.7313C40.0311 53.7754 41.2746 53.8195 42.4795 53.6215C46.9229 52.8992 50.4776 49.025 50.7912 44.8028C50.6927 44.8167 50.5956 44.8293 50.4996 44.8416L50.4991 44.8417C50.2327 44.876 49.9758 44.9091 49.7261 44.967C46.3339 45.8776 42.7139 45.1969 39.8789 43.1153C39.6287 42.9357 39.5495 42.5135 39.4702 42.0903C39.4335 41.8945 39.3968 41.6986 39.343 41.5262C39.47 41.5262 39.6055 41.5188 39.743 41.5114C40.1718 41.4881 40.6212 41.4637 40.8982 41.6575C42.9649 43.131 45.5069 43.7708 48.0207 43.4502C51.1376 43.1612 51.2879 42.9249 50.1574 40.0356C50.1092 39.9284 50.0563 39.8235 49.9988 39.7211L49.9331 39.6105L49.8492 39.5678C49.6206 39.461 49.326 39.3944 49.0401 39.3297C48.5603 39.2211 48.105 39.1181 48.0272 38.8405C47.8191 38.1199 48.3249 37.9447 48.8414 37.7658C49.0872 37.6806 49.3356 37.5946 49.5105 37.4485C50.5062 36.6295 51.4389 35.7361 52.3007 34.7759C52.9541 34.0471 52.7189 33.2591 51.9413 32.6353C50.7618 31.6914 49.5971 30.7298 48.436 29.7651L46.6958 28.3174C43.7954 25.9066 40.8835 23.5211 37.7879 21.387C31.1359 16.7249 23.2293 17.4472 17.8254 22.6281ZM70.5315 37.3828C70.4183 37.681 70.3047 37.9767 70.1918 38.2707L70.1916 38.2711C69.7899 39.317 69.3965 40.3414 69.0548 41.3817C68.9894 41.5787 69.2704 42.0384 69.5056 42.1631C72.335 43.4042 75.1775 44.619 78.0395 45.7812C78.4279 45.8637 78.8314 45.7425 79.1112 45.4595C79.5849 44.5074 79.9865 43.5 80.3982 42.4674L80.3984 42.4669C80.5545 42.0754 80.712 41.6803 80.8754 41.2832L70.5315 37.3828ZM89.6772 28.8202C88.0287 28.875 86.3884 29.0794 84.7765 29.4309C83.8762 29.6388 82.996 29.94 82.1193 30.2589L81.0677 30.6454C80.717 30.7738 80.3658 30.9003 80.0129 31.02C77.569 31.8605 75.1056 32.2676 72.5507 31.4533C69.9957 30.6391 67.5192 29.9234 64.9904 29.2076C64.2014 29.024 63.403 28.8837 62.5988 28.7874C62.638 29.2135 62.7618 29.3254 62.8922 29.4434L62.8929 29.444C63.5794 29.949 64.264 30.4551 64.9484 30.961L64.9501 30.9623C66.5255 32.127 68.0991 33.2903 69.6886 34.4345C70.576 35.1214 71.528 35.7196 72.5311 36.2205C73.4145 36.6474 74.3366 36.9549 75.2579 37.2621C75.7539 37.4276 76.2498 37.5929 76.7392 37.7768C77.2852 37.9821 77.7404 38.1702 78.128 38.3304C79.0719 38.7205 79.6153 38.9451 80.095 38.849C80.7459 38.7187 81.2797 37.9982 82.5377 36.3003L82.6507 36.1478L82.7769 35.9776C84.6588 33.4364 86.8282 31.3811 89.9647 30.6654C90.8851 30.4519 91.8267 30.3372 92.7675 30.2225C93.3029 30.1573 93.8381 30.0921 94.3689 30.0087C94.7849 29.9133 95.1927 29.8063 95.5972 29.7001C95.9996 29.5945 96.3989 29.4897 96.7997 29.3981H96.7866L96.7147 28.9647C96.4269 28.8942 96.1342 28.8459 95.8391 28.8202C95.1554 28.8202 94.471 28.8085 93.7864 28.7969C92.4164 28.7735 91.0453 28.7502 89.6772 28.8202ZM91.7617 20.8903H65.6242V24.5126H91.7617V20.8903ZM91.7617 14.0064H65.6242V17.6288H91.7617V14.0064ZM33.7888 21.5119C34.0278 21.7521 34.2738 21.9536 34.5028 22.1412C34.8999 22.4665 35.246 22.75 35.4159 23.1207C35.5662 23.4293 35.0761 24.1188 34.7625 24.5522C34.2467 25.2724 33.7068 25.9772 33.1669 26.6819C32.7765 27.1914 32.3861 27.701 32.005 28.2162C31.7821 28.5212 31.5704 28.834 31.359 29.1464C30.9878 29.6948 30.6172 30.2423 30.1884 30.7443C29.8684 30.9639 29.4644 31.0198 29.0972 30.8953C28.9338 30.8362 28.7705 30.2387 28.8685 29.9695C28.9612 29.7448 29.0537 29.52 29.1462 29.2952C29.9731 27.286 30.8007 25.275 31.7763 23.344C32.0074 22.8794 32.4686 22.5347 32.9887 22.146C33.2478 21.9523 33.5216 21.7477 33.7888 21.5119ZM39.6257 32.3297C40.2738 31.7309 40.6428 30.8868 40.6434 30.0022C40.6099 29.9652 40.5693 29.9043 40.5217 29.833C40.3749 29.6127 40.1619 29.2931 39.8855 29.2733C39.4491 29.3064 39.0563 29.5515 38.8334 29.9299C38.18 31.322 37.6899 31.5781 36.2197 31.0265C35.79 30.7792 35.3341 30.5809 34.8605 30.4355C34.3781 30.4662 33.9037 30.5748 33.4556 30.7573C33.5153 30.8979 33.5633 31.0639 33.6115 31.2304C33.7163 31.5929 33.8219 31.9581 34.0503 32.0706C35.051 32.5899 36.1237 32.9552 37.2325 33.154C38.1098 33.2275 38.9777 32.9285 39.6257 32.3297Z" fill="#3E4358"/>
<rect x="54.7051" y="0.214844" width="55.5" height="18.0883" fill="white"/>
</svg>
