<svg width="14" height="12" viewBox="0 0 14 12" fill="none" xmlns="http://www.w3.org/2000/svg">
<path fill-rule="evenodd" clip-rule="evenodd" d="M3.09092 2.88905C4.46853 1.27725 6.7422 0.763541 8.67895 1.6265L9.72431 3.23786L6.73021 6.23196L5.53817 5.03993C5.30386 4.80561 4.92396 4.80561 4.68964 5.03993C4.45533 5.27424 4.45533 5.65414 4.68964 5.88845L6.30594 7.50475C6.54026 7.73907 6.92016 7.73907 7.15447 7.50475L10.3921 4.26716L11.518 6.00277C11.5167 8.12293 10.121 9.98973 8.08784 10.5909C6.05455 11.1921 3.86802 10.3842 2.71398 8.60551C1.55994 6.82678 1.71332 4.50084 3.09092 2.88905ZM10.3921 4.26708L11.518 6.00243L11.518 5.50172C11.518 5.17035 11.7867 4.90172 12.118 4.90172C12.4494 4.90172 12.718 5.17035 12.718 5.50172V6.00277V6.00311C12.7165 8.65486 10.971 10.9898 8.42808 11.7416C5.88516 12.4935 3.15058 11.4832 1.70729 9.25864C0.264006 7.03408 0.455819 4.12517 2.17871 2.10938C3.90161 0.0935942 6.74517 -0.54887 9.16735 0.530391C9.47003 0.665259 9.60607 1.01996 9.47121 1.32265C9.33634 1.62533 8.98163 1.76137 8.67895 1.6265L9.72436 3.23781L12.2324 0.729796C12.4667 0.495482 12.8466 0.495482 13.0809 0.729796C13.3152 0.964111 13.3152 1.34401 13.0809 1.57832L10.3921 4.26708Z" fill="#9296A3"/>
</svg>
