<svg width="12" height="14" viewBox="0 0 12 14" fill="none" xmlns="http://www.w3.org/2000/svg">
<path fill-rule="evenodd" clip-rule="evenodd" d="M1.80059 1.5C1.41399 1.5 1.10059 1.8134 1.10059 2.2V11.8C1.10059 12.1866 1.41399 12.5 1.80059 12.5H4.80059C5.07673 12.5 5.30059 12.7239 5.30059 13C5.30059 13.2761 5.07673 13.5 4.80059 13.5H1.80059C0.861702 13.5 0.100586 12.7389 0.100586 11.8V2.2C0.100586 1.26112 0.861702 0.5 1.80059 0.5H4.80059C5.07673 0.5 5.30059 0.723858 5.30059 1C5.30059 1.27614 5.07673 1.5 4.80059 1.5H1.80059ZM8.64523 4.24361C8.84049 4.04835 9.15707 4.04835 9.35233 4.24361L11.7523 6.64361C11.794 6.68529 11.8268 6.73249 11.8507 6.78286C11.8818 6.84804 11.8992 6.92101 11.8992 6.99805C11.8992 7.14714 11.834 7.28099 11.7305 7.37259L9.35233 9.75072C9.15707 9.94598 8.84049 9.94598 8.64523 9.75072C8.44996 9.55546 8.44996 9.23888 8.64523 9.04362L10.1908 7.49805H4.19922C3.92308 7.49805 3.69922 7.27419 3.69922 6.99805C3.69922 6.7219 3.92308 6.49805 4.19922 6.49805H10.1926L8.64523 4.95072C8.44996 4.75546 8.44996 4.43888 8.64523 4.24361Z" fill="#9296A3"/>
</svg>
