<svg width="13" height="14" viewBox="0 0 13 14" fill="none" xmlns="http://www.w3.org/2000/svg">
<path d="M0.998535 9.40176C0.667164 9.40176 0.398535 9.67039 0.398535 10.0018C0.398535 10.3331 0.667164 10.6018 0.998535 10.6018V9.40176ZM2.79889 5.20082H2.19889H2.79889ZM11.2005 5.20082H11.8005H11.2005ZM8.03782 12.4018L8.55682 12.7029C8.66448 12.5173 8.66484 12.2883 8.55774 12.1023C8.45064 11.9164 8.25239 11.8018 8.03782 11.8018V12.4018ZM5.96141 12.4018V11.8018C5.74683 11.8018 5.54859 11.9164 5.44149 12.1023C5.33439 12.2883 5.33474 12.5173 5.44241 12.7029L5.96141 12.4018ZM13.0009 9.40176H0.998535V10.6018H13.0009V9.40176ZM0.998535 10.6018C2.32421 10.6018 3.39889 9.52709 3.39889 8.20141H2.19889C2.19889 8.86435 1.66147 9.40176 0.998535 9.40176V10.6018ZM3.39889 8.20141V5.20082H2.19889V8.20141H3.39889ZM3.39889 5.20082C3.39889 3.21214 5.01103 1.6 6.99971 1.6V0.4C4.34829 0.4 2.19889 2.5494 2.19889 5.20082H3.39889ZM6.99971 1.6C8.98839 1.6 10.6005 3.21214 10.6005 5.20082H11.8005C11.8005 2.5494 9.65113 0.4 6.99971 0.4V1.6ZM10.6005 5.20082V8.20141H11.8005V5.20082H10.6005ZM10.6005 8.20141C10.6005 9.52709 11.6752 10.6018 13.0009 10.6018V9.40176C12.3379 9.40176 11.8005 8.86435 11.8005 8.20141H10.6005ZM7.51882 12.1008C7.41143 12.2859 7.21362 12.3998 6.99961 12.3998V13.5998C7.64146 13.5998 8.23476 13.2581 8.55682 12.7029L7.51882 12.1008ZM6.99961 12.3998C6.78561 12.3998 6.58779 12.2859 6.48041 12.1008L5.44241 12.7029C5.76447 13.2581 6.35777 13.5998 6.99961 13.5998V12.3998ZM5.96141 13.0018H8.03782V11.8018H5.96141V13.0018Z" fill="#9296A3"/>
</svg>
