<svg width="21" height="20" viewBox="0 0 21 20" fill="none" xmlns="http://www.w3.org/2000/svg">
<path fill-rule="evenodd" clip-rule="evenodd" d="M20.1387 1.49304C20.0954 0.698589 19.4635 0.0668311 18.6691 0.0234717C17.066 -0.0641063 13.9292 0.0210891 10.9296 1.57253C9.40052 2.36347 7.78333 3.70445 6.49274 5.25164L6.46525 5.28503L6.4456 5.30898L3.51669 5.53523C3.03458 5.57249 2.60517 5.82519 2.33853 6.22847L0.340322 9.25082C0.138096 9.55667 0.105947 9.93945 0.254268 10.2747C0.402627 10.61 0.707471 10.8437 1.06978 10.8998L3.53739 11.282L3.53588 11.2903C3.52767 11.3355 3.51947 11.3807 3.51192 11.4259C3.42978 11.9173 3.59259 12.4225 3.94751 12.7774L7.3847 16.2146C7.67895 16.5089 8.07657 16.6711 8.48399 16.6711C8.5679 16.6711 8.65228 16.6642 8.73626 16.6502C8.78139 16.6427 8.82649 16.6345 8.87162 16.6263L8.88013 16.6247L9.26231 19.0924C9.31845 19.4547 9.55212 19.7596 9.88735 19.9079C10.0268 19.9696 10.1745 20.0001 10.3214 20.0001C10.5278 20 10.7327 19.94 10.9113 19.8219L13.9336 17.8236C14.337 17.5569 14.5896 17.1275 14.6268 16.6455L14.8531 13.7166L14.8773 13.6967L14.9104 13.6694C16.4577 12.3789 17.7987 10.7617 18.5896 9.23253C20.1411 6.23289 20.2261 3.09597 20.1387 1.49304ZM13.2874 16.8461L10.3963 18.7575L10.0238 16.3526C11.2457 15.9934 12.4544 15.418 13.6059 14.6471L13.4585 16.5552C13.4493 16.6742 13.3869 16.7802 13.2874 16.8461ZM8.21333 15.386L4.7761 11.9488C4.68841 11.8611 4.64786 11.7378 4.66774 11.6191C4.76993 11.008 4.92872 10.4264 5.12528 9.87839L10.2826 15.0357C9.6245 15.2715 9.03501 15.4121 8.54302 15.4944C8.42411 15.5141 8.30102 15.4737 8.21333 15.386ZM3.60696 6.70363L5.51493 6.55624C4.74407 7.70777 4.16868 8.91648 3.80942 10.1384L1.40458 9.76589L3.31606 6.8748C3.38192 6.77519 3.48798 6.71281 3.60696 6.70363ZM14.1599 12.7695C13.2133 13.5591 12.2944 14.1302 11.4475 14.5434L5.61853 8.71445C6.15985 7.60882 6.82052 6.68816 7.39263 6.0023C8.58696 4.57046 10.0724 3.33527 11.4681 2.61339C14.2209 1.18945 17.1214 1.11277 18.6053 1.19355C18.8017 1.20425 18.9579 1.36046 18.9686 1.55691C19.0495 3.04082 18.9727 5.94121 17.5487 8.69414C16.8269 10.0898 15.5917 11.5752 14.1599 12.7695ZM13.8625 9.2285C14.6125 9.22842 15.3629 8.94287 15.934 8.37182C16.4874 7.8185 16.792 7.08279 16.792 6.30029C16.792 5.51779 16.4873 4.78209 15.934 4.22877C14.7917 3.08646 12.9331 3.08654 11.7909 4.22877C11.2376 4.78209 10.9329 5.51779 10.9329 6.30029C10.9329 7.08279 11.2376 7.8185 11.7909 8.37182C12.3621 8.94299 13.1121 9.22857 13.8625 9.2285ZM12.6195 5.05736C12.9622 4.71467 13.4123 4.54334 13.8624 4.54334C14.3125 4.54334 14.7627 4.71467 15.1053 5.05736C15.4373 5.38936 15.6201 5.83076 15.6201 6.30025C15.6201 6.76975 15.4373 7.21119 15.1053 7.54318C14.42 8.22853 13.3048 8.2285 12.6195 7.54318C12.2875 7.21119 12.1046 6.76979 12.1046 6.30029C12.1046 5.8308 12.2875 5.38936 12.6195 5.05736ZM1.17429 16.3102C1.05991 16.4247 0.909951 16.4819 0.75999 16.4819C0.610029 16.4819 0.460068 16.4247 0.345693 16.3102C0.116865 16.0814 0.116865 15.7104 0.345693 15.4816L2.25866 13.5686C2.48749 13.3398 2.85851 13.3398 3.08729 13.5686C3.31612 13.7974 3.31612 14.1684 3.08729 14.3972L1.17429 16.3102ZM4.8405 15.3215C4.61171 15.0927 4.24069 15.0927 4.01187 15.3215L0.333975 18.9995C0.105146 19.2283 0.105146 19.5993 0.333975 19.8281C0.448389 19.9425 0.598311 19.9997 0.748272 19.9997C0.898233 19.9997 1.04819 19.9425 1.16257 19.8281L4.84046 16.1502C5.06933 15.9213 5.06933 15.5504 4.8405 15.3215ZM3.85204 18.988L5.76505 17.0749C5.99384 16.8461 6.36485 16.8461 6.59364 17.0749C6.82247 17.3038 6.82247 17.6747 6.59364 17.9036L4.68063 19.8166C4.56626 19.931 4.41626 19.9882 4.26634 19.9882C4.11642 19.9882 3.96645 19.931 3.85204 19.8166C3.62321 19.5878 3.62321 19.2168 3.85204 18.988Z" fill="#3E4358"/>
</svg>
