<svg width="21" height="21" viewBox="0 0 21 21" fill="none" xmlns="http://www.w3.org/2000/svg">
<path fill-rule="evenodd" clip-rule="evenodd" d="M20.1387 2.01453C20.0954 1.22007 19.4635 0.588315 18.6691 0.544956C17.066 0.457378 13.9292 0.542573 10.9296 2.09402C9.40052 2.88496 7.78333 4.22593 6.49274 5.77312L6.46525 5.80651L6.4456 5.83046L3.51669 6.05671C3.03458 6.09398 2.60517 6.34667 2.33853 6.74996L0.340322 9.7723C0.138096 10.0782 0.105947 10.4609 0.254268 10.7962C0.402627 11.1315 0.707471 11.3652 1.06978 11.4213L3.53739 11.8035L3.53588 11.8118C3.52767 11.857 3.51947 11.9022 3.51192 11.9474C3.42978 12.4388 3.59259 12.944 3.94751 13.2989L7.3847 16.7361C7.67895 17.0304 8.07657 17.1926 8.48399 17.1926C8.5679 17.1926 8.65228 17.1857 8.73626 17.1717C8.78139 17.1641 8.82649 17.1559 8.87162 17.1478L8.88013 17.1462L9.26231 19.6139C9.31845 19.9762 9.55212 20.281 9.88735 20.4294C10.0268 20.4911 10.1745 20.5216 10.3214 20.5216C10.5278 20.5215 10.7327 20.4614 10.9113 20.3434L13.9336 18.3451C14.337 18.0784 14.5896 17.649 14.6268 17.1669L14.8531 14.2381L14.8773 14.2182L14.9104 14.1909C16.4577 12.9003 17.7987 11.2832 18.5896 9.75402C20.1411 6.75437 20.2261 3.61746 20.1387 2.01453ZM13.2874 17.3675L10.3963 19.279L10.0238 16.8741C11.2457 16.5148 12.4544 15.9394 13.6059 15.1686L13.4585 17.0766C13.4493 17.1957 13.3869 17.3017 13.2874 17.3675ZM8.21333 15.9075L4.7761 12.4703C4.68841 12.3825 4.64786 12.2593 4.66774 12.1406C4.76993 11.5295 4.92872 10.9478 5.12528 10.3999L10.2826 15.5572C9.6245 15.793 9.03501 15.9336 8.54302 16.0159C8.42411 16.0356 8.30102 15.9952 8.21333 15.9075ZM3.60696 7.22511L5.51493 7.07773C4.74407 8.22925 4.16868 9.43796 3.80942 10.6598L1.40458 10.2874L3.31606 7.39628C3.38192 7.29667 3.48798 7.23429 3.60696 7.22511ZM14.1599 13.291C13.2133 14.0805 12.2944 14.6516 11.4475 15.0649L5.61853 9.23593C6.15985 8.13031 6.82052 7.20964 7.39263 6.52378C8.58696 5.09195 10.0724 3.85675 11.4681 3.13488C14.2209 1.71093 17.1214 1.63425 18.6053 1.71503C18.8017 1.72574 18.9579 1.88195 18.9686 2.07839C19.0495 3.5623 18.9727 6.46269 17.5487 9.21562C16.8269 10.6112 15.5917 12.0966 14.1599 13.291ZM13.8625 9.74998C14.6125 9.7499 15.3629 9.46435 15.934 8.8933C16.4874 8.33998 16.792 7.60428 16.792 6.82178C16.792 6.03928 16.4873 5.30357 15.934 4.75025C14.7917 3.60795 12.9331 3.60803 11.7909 4.75025C11.2376 5.30357 10.9329 6.03928 10.9329 6.82178C10.9329 7.60428 11.2376 8.33998 11.7909 8.8933C12.3621 9.46447 13.1121 9.75006 13.8625 9.74998ZM12.6195 5.57885C12.9622 5.23615 13.4123 5.06482 13.8624 5.06482C14.3125 5.06482 14.7627 5.23615 15.1053 5.57885C15.4373 5.91084 15.6201 6.35225 15.6201 6.82174C15.6201 7.29123 15.4373 7.73268 15.1053 8.06467C14.42 8.75002 13.3048 8.74998 12.6195 8.06467C12.2875 7.73268 12.1046 7.29127 12.1046 6.82178C12.1046 6.35229 12.2875 5.91084 12.6195 5.57885ZM1.17429 16.8317C1.05991 16.9462 0.909951 17.0034 0.75999 17.0034C0.610029 17.0034 0.460068 16.9461 0.345693 16.8317C0.116865 16.6029 0.116865 16.2319 0.345693 16.0031L2.25866 14.0901C2.48749 13.8612 2.85851 13.8612 3.08729 14.0901C3.31612 14.3189 3.31612 14.6899 3.08729 14.9187L1.17429 16.8317ZM4.8405 15.843C4.61171 15.6142 4.24069 15.6142 4.01187 15.843L0.333975 19.5209C0.105146 19.7498 0.105146 20.1207 0.333975 20.3496C0.448389 20.464 0.598311 20.5212 0.748272 20.5212C0.898233 20.5212 1.04819 20.464 1.16257 20.3495L4.84046 16.6716C5.06933 16.4428 5.06933 16.0718 4.8405 15.843ZM3.85204 19.5094L5.76505 17.5964C5.99384 17.3676 6.36485 17.3676 6.59364 17.5964C6.82247 17.8253 6.82247 18.1962 6.59364 18.4251L4.68063 20.3381C4.56626 20.4525 4.41626 20.5097 4.26634 20.5097C4.11642 20.5097 3.96645 20.4525 3.85204 20.3381C3.62321 20.1092 3.62321 19.7383 3.85204 19.5094Z" fill="#9296A3"/>
</svg>
