<svg width="21" height="21" viewBox="0 0 21 21" fill="none" xmlns="http://www.w3.org/2000/svg">
<path d="M17.2332 3.45039C15.3445 1.56168 12.8332 0.521484 10.1621 0.521484C7.49102 0.521484 4.97977 1.56168 3.09102 3.45039C1.2023 5.33914 0.162109 7.85039 0.162109 10.5215C0.162109 13.1926 1.2023 15.7038 3.09105 17.5926C3.23109 17.7326 3.42437 17.7865 3.60574 17.7551C3.60602 17.7552 3.60613 17.7554 3.60648 17.7554L8.34082 16.9262C8.45949 16.9054 8.56887 16.8486 8.65406 16.7634L16.268 9.14937C16.4969 8.92055 16.4969 8.54957 16.268 8.32074L12.3623 4.41504C12.1336 4.18621 11.7625 4.18621 11.5337 4.41504L3.91969 12.0291C3.83445 12.1143 3.77762 12.2237 3.75684 12.3423L3.1391 15.8721C1.9684 14.342 1.33398 12.4806 1.33398 10.5215C1.33398 5.65363 5.29426 1.69336 10.1621 1.69336C15.03 1.69336 18.9902 5.65363 18.9902 10.5215C18.9902 15.3893 15.03 19.3496 10.1621 19.3496C9.83852 19.3496 9.57617 19.612 9.57617 19.9355C9.57617 20.2591 9.83852 20.5215 10.1621 20.5215C12.8332 20.5215 15.3445 19.4813 17.2332 17.5926C19.1219 15.7038 20.1621 13.1926 20.1621 10.5215C20.1621 7.85039 19.1219 5.33914 17.2332 3.45039ZM4.71684 13.6548L7.0284 15.9664L4.22645 16.4571L4.71684 13.6548ZM8.23969 15.5204L7.11574 14.3965L13.9011 7.61113L15.025 8.73508L8.23969 15.5204ZM11.948 5.65801L13.0725 6.7825L6.28711 13.5679L5.16266 12.4434L11.948 5.65801Z" fill="#9296A3"/>
</svg>
