<svg width="21" height="21" viewBox="0 0 21 21" fill="none" xmlns="http://www.w3.org/2000/svg">
<path d="M17.2332 2.9709C15.3445 1.08219 12.8332 0.0419922 10.1621 0.0419922C7.49102 0.0419922 4.97977 1.08219 3.09102 2.9709C1.2023 4.85965 0.162109 7.3709 0.162109 10.042C0.162109 12.7131 1.2023 15.2243 3.09105 17.1131C3.23109 17.2531 3.42437 17.307 3.60574 17.2756C3.60602 17.2757 3.60613 17.2759 3.60648 17.2759L8.34082 16.4467C8.45949 16.4259 8.56887 16.3691 8.65406 16.2839L16.268 8.66988C16.4969 8.44105 16.4969 8.07008 16.268 7.84125L12.3623 3.93555C12.1336 3.70672 11.7625 3.70672 11.5337 3.93555L3.91969 11.5496C3.83445 11.6348 3.77762 11.7442 3.75684 11.8629L3.1391 15.3926C1.9684 13.8625 1.33398 12.0011 1.33398 10.042C1.33398 5.17414 5.29426 1.21387 10.1621 1.21387C15.03 1.21387 18.9902 5.17414 18.9902 10.042C18.9902 14.9098 15.03 18.8701 10.1621 18.8701C9.83852 18.8701 9.57617 19.1325 9.57617 19.4561C9.57617 19.7796 9.83852 20.042 10.1621 20.042C12.8332 20.042 15.3445 19.0018 17.2332 17.1131C19.1219 15.2243 20.1621 12.7131 20.1621 10.042C20.1621 7.3709 19.1219 4.85965 17.2332 2.9709ZM4.71684 13.1754L7.0284 15.4869L4.22645 15.9776L4.71684 13.1754ZM8.23969 15.0409L7.11574 13.917L13.9011 7.13164L15.025 8.25559L8.23969 15.0409ZM11.948 5.17852L13.0725 6.30301L6.28711 13.0884L5.16266 11.9639L11.948 5.17852Z" fill="#3E4358"/>
</svg>
