<svg width="21" height="21" viewBox="0 0 21 21" fill="none" xmlns="http://www.w3.org/2000/svg">
<path d="M19.4014 5.14227L10.5693 0.66712L10.5656 0.665284C10.1723 0.469491 9.70505 0.473867 9.31546 0.677004L5.52738 2.68743C5.4966 2.70048 5.46703 2.7163 5.43871 2.73451L0.899301 5.14371C0.443962 5.38212 0.161133 5.84926 0.161133 6.36339V14.6795C0.161133 15.1937 0.443962 15.6608 0.899301 15.8992L9.31171 20.364L9.3155 20.366C9.51418 20.4696 9.73314 20.5215 9.95214 20.5215C10.1625 20.5215 10.3729 20.4736 10.5656 20.3776L19.4014 15.9007C19.8708 15.6659 20.1623 15.1943 20.1623 14.6694V6.37359C20.1623 5.8486 19.8708 5.37697 19.4014 5.14227ZM9.85846 1.71507C9.91584 1.68562 9.98436 1.68503 10.0423 1.71343L18.3095 5.90235L15.092 7.5042L7.0095 3.22711L9.85846 1.71507ZM9.35792 19.0622L1.44675 14.8634L1.44297 14.8614C1.37495 14.8259 1.33265 14.7563 1.33265 14.6795V6.89202L9.35792 11.0768V19.0622ZM9.94987 10.0642L1.96874 5.90247L5.75896 3.8909L13.8014 8.14674L9.94987 10.0642ZM18.9907 14.6693C18.9908 14.7477 18.9472 14.8181 18.877 14.853L10.5295 19.0826V11.0843L14.3729 9.17086V11.177C14.3729 11.5005 14.6352 11.7628 14.9587 11.7628C15.2822 11.7628 15.5445 11.5005 15.5445 11.177V8.58758L18.9907 6.87186V14.6693Z" fill="#3E4358"/>
</svg>
