<svg width="21" height="21" viewBox="0 0 21 21" fill="none" xmlns="http://www.w3.org/2000/svg">
<path d="M19.4014 4.66326L10.5693 0.188116L10.5656 0.18628C10.1723 -0.0095125 9.70505 -0.00513723 9.31546 0.198L5.52738 2.20843C5.4966 2.22148 5.46703 2.2373 5.43871 2.2555L0.899301 4.66471C0.443962 4.90312 0.161133 5.37026 0.161133 5.88439V14.2005C0.161133 14.7147 0.443962 15.1818 0.899301 15.4202L9.31171 19.885L9.3155 19.887C9.51418 19.9906 9.73314 20.0425 9.95214 20.0425C10.1625 20.0425 10.3729 19.9946 10.5656 19.8986L19.4014 15.4217C19.8708 15.1869 20.1623 14.7153 20.1623 14.1904V5.89458C20.1623 5.36959 19.8708 4.89796 19.4014 4.66326ZM9.85846 1.23607C9.91584 1.20661 9.98436 1.20603 10.0423 1.23443L18.3095 5.42335L15.092 7.0252L7.0095 2.74811L9.85846 1.23607ZM9.35792 18.5832L1.44675 14.3844L1.44297 14.3824C1.37495 14.3469 1.33265 14.2773 1.33265 14.2005V6.41301L9.35792 10.5978V18.5832ZM9.94987 9.58523L1.96874 5.42346L5.75896 3.4119L13.8014 7.66773L9.94987 9.58523ZM18.9907 14.1903C18.9908 14.2687 18.9472 14.3391 18.877 14.374L10.5295 18.6036V10.6053L14.3729 8.69186V10.698C14.3729 11.0215 14.6352 11.2838 14.9587 11.2838C15.2822 11.2838 15.5445 11.0215 15.5445 10.698V8.10858L18.9907 6.39285V14.1903Z" fill="#9296A3"/>
</svg>
