<svg width="21" height="21" viewBox="0 0 21 21" fill="none" xmlns="http://www.w3.org/2000/svg">
<path fill-rule="evenodd" clip-rule="evenodd" d="M10.1621 19.588C15.0774 19.588 19.0621 15.6033 19.0621 10.688C19.0621 5.77265 15.0774 1.78799 10.1621 1.78799C5.24678 1.78799 1.26211 5.77265 1.26211 10.688C1.26211 15.6033 5.24678 19.588 10.1621 19.588ZM10.1621 20.688C15.685 20.688 20.1621 16.2108 20.1621 10.688C20.1621 5.16514 15.685 0.687988 10.1621 0.687988C4.63926 0.687988 0.162109 5.16514 0.162109 10.688C0.162109 16.2108 4.63926 20.688 10.1621 20.688ZM10.1621 15.838C13.0064 15.838 15.3121 13.5323 15.3121 10.688C15.3121 7.84372 13.0064 5.53799 10.1621 5.53799C7.31784 5.53799 5.01211 7.84372 5.01211 10.688C5.01211 13.5323 7.31784 15.838 10.1621 15.838ZM10.1621 16.938C13.6139 16.938 16.4121 14.1398 16.4121 10.688C16.4121 7.23621 13.6139 4.43799 10.1621 4.43799C6.71033 4.43799 3.91211 7.23621 3.91211 10.688C3.91211 14.1398 6.71033 16.938 10.1621 16.938ZM12.0621 10.688C12.0621 11.7373 11.2115 12.588 10.1621 12.588C9.11277 12.588 8.26211 11.7373 8.26211 10.688C8.26211 9.63865 9.11277 8.78799 10.1621 8.78799C11.2115 8.78799 12.0621 9.63865 12.0621 10.688ZM13.1621 10.688C13.1621 12.3448 11.819 13.688 10.1621 13.688C8.50525 13.688 7.16211 12.3448 7.16211 10.688C7.16211 9.03113 8.50525 7.68799 10.1621 7.68799C11.819 7.68799 13.1621 9.03113 13.1621 10.688Z" fill="#3E4358"/>
</svg>
