<svg width="21" height="20" viewBox="0 0 21 20" fill="none" xmlns="http://www.w3.org/2000/svg">
<path fill-rule="evenodd" clip-rule="evenodd" d="M10.1621 18.9001C15.0774 18.9001 19.0621 14.9154 19.0621 10.0001C19.0621 5.08473 15.0774 1.10006 10.1621 1.10006C5.24678 1.10006 1.26211 5.08473 1.26211 10.0001C1.26211 14.9154 5.24678 18.9001 10.1621 18.9001ZM10.1621 20.0001C15.685 20.0001 20.1621 15.5229 20.1621 10.0001C20.1621 4.47721 15.685 6.10352e-05 10.1621 6.10352e-05C4.63926 6.10352e-05 0.162109 4.47721 0.162109 10.0001C0.162109 15.5229 4.63926 20.0001 10.1621 20.0001ZM10.1621 15.1501C13.0064 15.1501 15.3121 12.8443 15.3121 10.0001C15.3121 7.15579 13.0064 4.85006 10.1621 4.85006C7.31784 4.85006 5.01211 7.15579 5.01211 10.0001C5.01211 12.8443 7.31784 15.1501 10.1621 15.1501ZM10.1621 16.2501C13.6139 16.2501 16.4121 13.4518 16.4121 10.0001C16.4121 6.54828 13.6139 3.75006 10.1621 3.75006C6.71033 3.75006 3.91211 6.54828 3.91211 10.0001C3.91211 13.4518 6.71033 16.2501 10.1621 16.2501ZM12.0621 10.0001C12.0621 11.0494 11.2115 11.9001 10.1621 11.9001C9.11277 11.9001 8.26211 11.0494 8.26211 10.0001C8.26211 8.95072 9.11277 8.10006 10.1621 8.10006C11.2115 8.10006 12.0621 8.95072 12.0621 10.0001ZM13.1621 10.0001C13.1621 11.6569 11.819 13.0001 10.1621 13.0001C8.50525 13.0001 7.16211 11.6569 7.16211 10.0001C7.16211 8.34321 8.50525 7.00006 10.1621 7.00006C11.819 7.00006 13.1621 8.34321 13.1621 10.0001Z" fill="#9296A3"/>
</svg>
