<svg width="172" height="31" viewBox="0 0 172 31" fill="none" xmlns="http://www.w3.org/2000/svg">
<path fill-rule="evenodd" clip-rule="evenodd" d="M24.4216 21.153C25.1626 20.7227 25.3777 20.4597 25.3777 18.9059V14.9139C25.3777 14.5231 25.0819 14.3689 24.759 14.2006C24.7264 14.1837 24.6935 14.1665 24.6606 14.149C24.6352 14.1363 24.6097 14.1239 24.5842 14.1115C24.2736 13.9604 23.9674 13.8114 23.9674 13.1928C23.9674 12.427 25.0262 12.1118 26.3347 11.7222L26.4534 11.6868C27.8638 11.2565 29.8718 10.7306 30.2064 10.7306C30.4933 10.7306 30.6606 10.8024 30.6606 11.3283V20.0534C30.6606 20.4836 31.0909 20.7944 31.6168 21.153L31.6416 21.1706C31.9574 21.3959 32.071 21.4769 32.071 21.9896C32.071 22.9458 31.6168 23.3044 30.804 23.3044C30.2901 23.3044 29.7762 23.2864 29.2622 23.2685L29.2619 23.2685C28.7481 23.2506 28.2342 23.2326 27.7204 23.2326C27.2065 23.2326 26.6927 23.2506 26.1788 23.2685L26.1785 23.2685C25.6646 23.2864 25.1507 23.3044 24.6367 23.3044C24.1347 23.3044 23.8957 22.8263 23.8957 22.3482C23.8957 21.8462 23.8957 21.4637 24.4216 21.153ZM26.9793 10.1808C26.0232 10.1808 25.569 9.82228 25.569 8.8183C25.569 7.38403 27.5291 6.02148 28.8678 6.02148C29.7762 6.02148 30.6367 6.45176 30.6367 7.45575C30.6367 9.10515 28.4136 10.1808 26.9793 10.1808ZM11.7974 7.88603C11.7018 7.24061 11.5106 6.69081 10.8174 6.69081C10.6443 6.69081 10.4838 6.72838 10.3177 6.76726L10.3175 6.76732C10.2542 6.78214 10.1901 6.79714 10.1241 6.81033C9.88508 6.88204 9.64604 6.95375 9.31138 6.95375C8.96755 6.95375 8.58509 6.87648 8.16399 6.7914L8.0988 6.77824L8.02054 6.76252C7.56636 6.6669 7.06437 6.57128 6.58628 6.57128C3.33528 6.57128 0.705798 9.08125 0.705798 12.3561C0.705798 16.1644 3.48578 17.1927 5.6125 17.9794C6.9299 18.4667 7.99664 18.8613 7.99664 19.7665C7.99664 20.6032 6.96875 20.7227 6.32333 20.7227C4.47495 20.7227 3.6355 19.6973 2.94008 18.8479C2.44835 18.2473 2.02862 17.7346 1.37512 17.7346C0.849224 17.7346 0.418945 18.0215 0.418945 19.7665C0.418945 22.5155 0.897033 23.0892 1.42293 23.0892C1.63807 23.0892 1.85321 23.0474 2.06835 23.0055C2.28347 22.9637 2.49865 22.9219 2.71377 22.9219C3.21576 22.9219 3.74166 23.0892 4.31536 23.2804L4.38708 23.3023C4.91703 23.464 5.49073 23.639 6.10819 23.639C9.9807 23.639 12.8253 21.8462 12.8253 17.902C12.8253 14.1546 9.82615 12.9384 7.61946 12.0435C6.33519 11.5227 5.31934 11.1108 5.31934 10.3721C5.31934 9.60714 6.03648 9.392 6.7058 9.392C8.54221 9.392 9.55415 10.5875 10.2491 11.4085C10.6126 11.8379 10.8893 12.1649 11.152 12.1649C11.8452 12.1649 12.3711 11.6868 12.2755 11.0175L11.7974 7.88603ZM14.9368 19.647C14.9368 22.2765 16.2515 23.4717 18.8571 23.4717C20.2674 23.4717 23.136 22.7546 23.136 20.89C23.136 20.388 22.8969 20.3402 22.4666 20.3402C22.3049 20.3402 22.1376 20.3514 21.9646 20.3629C21.7799 20.3753 21.5885 20.388 21.3909 20.388C20.7694 20.388 20.2196 19.9338 20.2196 17.4478V13.647H21.3431C22.2993 13.647 22.6579 13.5036 22.7535 13.145L22.7604 13.1216C22.8828 12.7055 23.136 11.8452 23.136 11.3761C23.136 11.1131 23.0642 10.8741 22.7535 10.8741C22.5201 10.8741 22.1216 10.8855 21.7137 10.8971C21.2857 10.9094 20.8474 10.9219 20.5782 10.9219C20.2913 10.9219 20.2913 10.5633 20.2913 9.15296C20.2913 8.65097 20.2196 8.3163 19.7893 8.3163C19.4846 8.3163 18.3277 9.08924 16.9862 9.98547L16.9838 9.98709L16.7828 10.1214L16.6796 10.1903L16.5862 10.2526C16.1905 10.5185 15.8143 10.7474 15.476 10.9533C14.5674 11.5061 13.9328 11.8923 13.9328 12.3801C13.9328 12.8294 14.2224 13.0581 14.4905 13.2698C14.7216 13.4523 14.9368 13.6222 14.9368 13.9099V19.647ZM33.0804 17.4717C33.0804 20.9617 34.419 23.4717 38.435 23.4717C40.419 23.4717 44.2437 22.3004 44.2437 20.1729C44.2437 19.7426 44.1003 19.3362 43.5983 19.3362C43.3629 19.3362 43.1099 19.4634 42.8206 19.6087C42.4343 19.8028 41.9834 20.0295 41.423 20.0295C38.6979 20.0295 38.3632 17.0892 38.3632 14.9617C38.3632 14.3402 38.5067 13.0733 39.2716 13.0733C39.8561 13.0733 40.2926 13.5331 40.7551 14.0204C41.2762 14.5693 41.8302 15.153 42.666 15.153C43.67 15.153 44.0286 14.0055 44.0286 12.9538C44.0286 11.137 41.6142 10.7306 39.6541 10.7306C35.184 10.7306 33.0804 13.8143 33.0804 17.4717ZM45.3937 21.153C45.7762 20.8422 46.1348 19.8382 46.1348 18.3322V10.5872C46.1348 9.62618 45.8213 9.4383 45.5266 9.26163C45.5061 9.24934 45.4857 9.23711 45.4655 9.22467C45.4159 9.19162 45.3656 9.16285 45.3163 9.13467C45.0805 8.99979 44.8678 8.87816 44.8678 8.36411C44.8678 7.16889 48.9077 6.02148 50.1985 6.02148C51.1786 6.02148 51.4177 6.30834 51.4177 7.62308C51.4177 8.8183 51.3997 10.0075 51.3818 11.1968C51.3639 12.386 51.3459 13.5753 51.3459 14.7705C51.3459 15.4876 51.3459 16.2048 51.5133 16.2048C51.9675 16.2048 54.573 14.1012 54.573 13.384C54.573 13.2645 54.5252 13.1689 54.4296 13.1211C54.3374 13.0767 54.254 13.0396 54.1788 13.0062C53.7272 12.8055 53.569 12.7352 53.569 11.9976C53.569 11.3044 53.7364 10.898 54.2862 10.898C54.7914 10.898 55.3139 10.9153 55.8453 10.9329L55.8456 10.9329C56.3952 10.9512 56.9542 10.9697 57.5133 10.9697C58.0631 10.9697 58.6129 10.9518 59.1627 10.9338C59.7124 10.9159 60.2623 10.898 60.8121 10.898C61.2663 10.898 61.3619 11.1609 61.3619 11.6151C61.3619 12.5952 61.0272 13.0016 60.0949 13.1211C58.7223 13.29 57.5735 14.2426 56.5332 15.1051L56.5328 15.1054C56.3957 15.2191 56.2604 15.3312 56.1268 15.4398C56.9635 16.635 59.7364 20.4836 61.338 21.153C61.7443 21.3203 61.8639 21.4876 61.8639 22.1569C61.8639 23.0892 61.7922 23.3044 60.9794 23.3044C60.6089 23.3044 60.2384 23.2864 59.8679 23.2685C59.4973 23.2506 59.1268 23.2326 58.7563 23.2326C58.4022 23.2326 58.048 23.249 57.6782 23.2661C57.2742 23.2848 56.8515 23.3044 56.3898 23.3044C56.0551 23.3044 55.7443 23.1131 55.4336 22.7067L52.9236 19.5275C52.5412 19.0494 52.3021 18.8103 52.1109 18.8103C51.7045 18.8103 51.585 18.9777 51.585 19.7904C51.585 20.6988 51.9914 20.9378 52.4934 21.153C52.5182 21.1636 52.5434 21.1741 52.5688 21.1847C52.8861 21.3169 53.2344 21.462 53.2344 22.0374C53.2344 23.1131 52.5651 23.3044 51.6089 23.3044C51.1427 23.3044 50.6766 23.2864 50.2105 23.2685C49.7443 23.2506 49.2782 23.2326 48.8121 23.2326C48.3459 23.2326 47.8798 23.2506 47.4137 23.2685C46.9475 23.2864 46.4814 23.3044 46.0153 23.3044C45.083 23.3044 44.8918 22.9697 44.8918 22.0613C44.8918 21.5767 45.07 21.4263 45.3619 21.1798L45.3937 21.153ZM69.0376 14.3402C69.0376 15.153 67.4599 15.4876 67.2209 15.4876C66.8623 15.4876 66.7428 15.2008 66.7428 14.5314C66.7428 13.886 67.0775 13.0733 67.8424 13.0733C68.5595 13.0733 69.0376 13.6709 69.0376 14.3402ZM72.432 16.0613C73.0775 15.894 73.5795 15.5354 73.5795 15.1769C73.5795 13.7426 72.3842 10.7306 68.3922 10.7306C64.7109 10.7306 61.7229 14.1012 61.7229 17.7107C61.7229 20.9378 63.6113 23.4717 67.2209 23.4717C69.683 23.4717 73.6751 22.7785 73.6751 19.5275C73.6751 19.1211 73.6033 18.9299 73.2926 18.9299C73.134 18.9299 72.888 19.0989 72.5677 19.3189C71.9708 19.7291 71.1162 20.3163 70.0894 20.3163C68.3205 20.3163 67.5555 19.0733 67.2209 17.4956L72.432 16.0613ZM75.0057 21.153C75.7467 20.8661 75.7467 19.5036 75.7467 18.882V14.4119C75.7467 14.1979 75.4632 14.0859 75.2008 13.9823C75.0823 13.9354 74.968 13.8903 74.8862 13.8382C74.5993 13.647 74.4559 13.4797 74.4559 13.0733C74.4559 12.3999 75.1584 12.1949 76.1397 11.9085C76.4125 11.8289 76.7069 11.743 77.0136 11.639C78.424 11.1609 79.9539 10.7306 80.5037 10.7306C81.0535 10.7306 81.1252 10.9697 81.1252 11.4C81.1252 11.4644 81.1107 11.5675 81.0948 11.6811C81.0752 11.8201 81.0535 11.9748 81.0535 12.0932C81.0535 12.2127 81.0774 12.3083 81.1491 12.3083C81.27 12.3083 81.4751 12.129 81.747 11.8913C82.2817 11.4239 83.0747 10.7306 83.9937 10.7306C85.667 10.7306 86.0973 12.7386 86.0973 14.0773C86.0973 14.89 86.0256 16.4199 84.8543 16.4199C84.3359 16.4199 83.8674 15.9369 83.3821 15.4364C82.8603 14.8984 82.319 14.3402 81.675 14.3402C81.2925 14.3402 81.0296 14.4836 81.0296 14.9378V19.0972C81.0296 20.2685 81.3164 20.7466 82.4878 21.153C83.1093 21.3681 83.3483 21.5354 83.3483 22.2287C83.3483 22.7546 83.2527 23.3044 82.6073 23.3044C82.1843 23.3044 81.6991 23.2888 81.1806 23.2722H81.1804C80.5856 23.2531 79.947 23.2326 79.3085 23.2326C78.7109 23.2326 78.1133 23.2506 77.5156 23.2685C76.918 23.2864 76.3204 23.3044 75.7228 23.3044C74.7427 23.3044 74.432 23.0414 74.432 22.0613C74.432 21.4159 74.6471 21.2964 75.0057 21.153ZM95.3429 19.6231C95.3429 20.4836 95.2712 20.8422 94.8887 20.9617C94.8415 20.9764 94.7958 20.9903 94.7517 21.0037C94.1483 21.187 93.8369 21.2817 93.8369 22.0613C93.8369 22.635 93.8369 23.3044 94.6975 23.3044C95.4027 23.3044 96.1078 23.2864 96.813 23.2685C97.5182 23.2506 98.2234 23.2326 98.9286 23.2326C99.6337 23.2326 100.333 23.2506 101.032 23.2685C101.731 23.2864 102.431 23.3044 103.136 23.3044C106.506 23.3044 110.331 22.7067 110.331 18.5235C110.331 16.5155 109.566 14.7466 107.51 14.2207V14.1729C108.992 13.6948 109.542 12.643 109.542 11.0653C109.542 8.24459 106.721 6.90595 104.259 6.90595C103.53 6.90595 102.795 6.92387 102.06 6.9418C101.325 6.95973 100.59 6.97766 99.8608 6.97766C99.06 6.97766 98.2533 6.95973 97.4465 6.9418C96.6398 6.92388 95.8329 6.90595 95.0321 6.90595C94.1716 6.90595 93.9564 7.24061 93.9564 8.2685C93.9564 9.10515 94.2672 9.17686 94.6497 9.24858C95.0082 9.32029 95.3429 9.392 95.3429 10.1091V19.6231ZM104.116 18.2366C104.116 19.5753 103.662 20.4836 102.203 20.4836C101.558 20.4836 101.199 20.3163 101.199 19.7426C101.199 19.4028 101.183 18.9933 101.166 18.5623C101.148 18.0836 101.128 17.5785 101.128 17.1131C101.128 15.7984 101.152 15.5593 101.51 15.5593C102.658 15.5593 104.116 16.396 104.116 18.2366ZM101.128 10.0374C101.128 9.65495 101.439 9.53543 101.725 9.53543C102.729 9.53543 103.614 10.133 103.614 11.2804C103.614 12.3322 103.112 13.0255 101.964 13.0255C101.295 13.0255 101.128 12.9538 101.128 12.4996V10.0374ZM116.721 23.4717C114.283 23.4717 112.849 22.5155 112.849 19.9577V15.2008C112.849 13.8621 112.61 13.3123 112.347 13.1211C112.202 13.0171 112.068 12.9383 111.946 12.8674L111.946 12.8672L111.946 12.8671C111.566 12.6447 111.319 12.4999 111.319 11.902C111.319 11.0175 111.868 10.898 112.681 10.898C113.088 10.898 113.494 10.9159 113.9 10.9338C114.307 10.9518 114.713 10.9697 115.119 10.9697C115.526 10.9697 115.932 10.9518 116.339 10.9338C116.745 10.9159 117.151 10.898 117.558 10.898C118.06 10.898 118.275 11.2565 118.275 11.8063C118.275 12.4757 118.239 13.145 118.203 13.8143C118.167 14.4836 118.131 15.153 118.131 15.8223C118.131 18.8342 118.418 20.1012 120.139 20.1012C121.024 20.1012 121.191 19.6948 121.191 19.0255V13.9577C121.191 13.4274 120.89 13.2736 120.672 13.1622L120.655 13.1536C120.634 13.1425 120.613 13.1318 120.594 13.1211C120.516 13.0783 120.441 13.0424 120.371 13.0086C120.008 12.8347 119.757 12.7141 119.757 11.9737C119.757 11.2565 119.972 10.898 120.474 10.898C120.892 10.898 121.311 10.9159 121.729 10.9338C122.147 10.9518 122.566 10.9697 122.984 10.9697C123.402 10.9697 123.821 10.9518 124.239 10.9338C124.657 10.9159 125.076 10.898 125.494 10.898C126.259 10.898 126.474 11.3283 126.474 12.0454C126.474 13.3303 126.456 14.3377 126.438 15.3404C126.42 16.3336 126.402 17.3222 126.402 18.5713C126.402 19.6231 126.833 20.0055 127.263 20.2207C127.36 20.2747 127.46 20.3201 127.556 20.3639C127.885 20.5141 128.171 20.6448 128.171 21.0334C128.171 21.7028 127.789 22.0135 127.143 22.2287L122.41 23.8781C122.1 23.9976 121.861 24.0215 121.598 24.0215C121.239 24.0215 121.239 23.4956 121.239 23.1848V21.7745C119.805 23.0414 118.657 23.4717 116.721 23.4717ZM129.502 19.647C129.502 22.2765 130.817 23.4717 133.423 23.4717C134.833 23.4717 137.701 22.7546 137.701 20.89C137.701 20.388 137.462 20.3402 137.032 20.3402C136.87 20.3402 136.703 20.3514 136.53 20.3629C136.345 20.3753 136.154 20.388 135.956 20.388C135.335 20.388 134.785 19.9338 134.785 17.4478V13.647H135.909C136.865 13.647 137.223 13.5036 137.319 13.145L137.326 13.1216C137.448 12.7055 137.701 11.8452 137.701 11.3761C137.701 11.1131 137.63 10.8741 137.319 10.8741C137.086 10.8741 136.687 10.8855 136.279 10.8971C135.851 10.9094 135.413 10.9219 135.144 10.9219C134.857 10.9219 134.857 10.5633 134.857 9.15296C134.857 8.65097 134.785 8.3163 134.355 8.3163C134.05 8.3163 132.893 9.08934 131.551 9.98562L131.34 10.1269C131.277 10.1686 131.215 10.2105 131.152 10.2526C130.756 10.5185 130.38 10.7474 130.042 10.9533C129.133 11.5061 128.498 11.8923 128.498 12.3801C128.498 12.8294 128.788 13.0581 129.056 13.2698C129.287 13.4523 129.502 13.6222 129.502 13.9099V19.647ZM139.059 21.153C139.848 20.8661 139.943 20.0773 139.943 14.89V10.8741C139.943 9.87942 139.533 9.5889 139.242 9.38327L139.241 9.38246C139.225 9.37155 139.21 9.36088 139.195 9.35035C139.181 9.34023 139.168 9.33023 139.154 9.32029C139.136 9.3049 139.117 9.29 139.098 9.27539C139.09 9.26876 139.081 9.26219 139.073 9.25566L139.055 9.2418C138.829 9.06746 138.629 8.91275 138.629 8.41192C138.629 7.24061 142.597 6.02148 143.959 6.02148C144.987 6.02148 145.226 6.21272 145.226 6.59519V17.9737C145.226 20.3163 145.322 20.7227 146.015 21.153C146.326 21.3442 146.589 21.5354 146.589 22.2048C146.589 22.4677 146.541 23.3044 145.848 23.3044C145.298 23.3044 144.748 23.2864 144.198 23.2685C143.648 23.2506 143.099 23.2326 142.549 23.2326C141.999 23.2326 141.449 23.2506 140.899 23.2685C140.35 23.2864 139.8 23.3044 139.25 23.3044C138.557 23.3044 138.366 22.898 138.366 21.9896C138.366 21.4637 138.485 21.3681 139.059 21.153ZM154.445 14.3402C154.445 15.153 152.868 15.4876 152.629 15.4876C152.27 15.4876 152.151 15.2008 152.151 14.5314C152.151 13.886 152.485 13.0733 153.25 13.0733C153.967 13.0733 154.445 13.6709 154.445 14.3402ZM157.84 16.0613C158.485 15.894 158.987 15.5354 158.987 15.1769C158.987 13.7426 157.792 10.7306 153.8 10.7306C150.119 10.7306 147.131 14.1012 147.131 17.7107C147.131 20.9378 149.019 23.4717 152.629 23.4717C155.091 23.4717 159.083 22.7785 159.083 19.5275C159.083 19.1211 159.011 18.9299 158.7 18.9299C158.542 18.9299 158.296 19.0989 157.975 19.319C157.379 19.7291 156.524 20.3163 155.497 20.3163C153.728 20.3163 152.963 19.0733 152.629 17.4956L157.84 16.0613ZM160.413 21.153C161.154 20.8661 161.154 19.5036 161.154 18.882V14.4119C161.154 14.1979 160.871 14.0859 160.609 13.9823C160.49 13.9354 160.376 13.8903 160.294 13.8382C160.007 13.647 159.864 13.4797 159.864 13.0733C159.864 12.3999 160.566 12.1949 161.548 11.9085C161.82 11.8289 162.115 11.743 162.421 11.639C163.832 11.1609 165.362 10.7306 165.911 10.7306C166.461 10.7306 166.533 10.9697 166.533 11.4C166.533 11.4644 166.519 11.5673 166.503 11.6807L166.503 11.6811C166.483 11.82 166.461 11.9748 166.461 12.0932C166.461 12.2127 166.485 12.3083 166.557 12.3083C166.678 12.3083 166.883 12.129 167.155 11.8913C167.689 11.4239 168.482 10.7306 169.402 10.7306C171.075 10.7306 171.505 12.7386 171.505 14.0773C171.505 14.89 171.433 16.4199 170.262 16.4199C169.744 16.4199 169.275 15.9369 168.79 15.4364C168.268 14.8984 167.727 14.3402 167.083 14.3402C166.7 14.3402 166.437 14.4836 166.437 14.9378V19.0972C166.437 20.2685 166.724 20.7466 167.896 21.153C168.517 21.3681 168.756 21.5354 168.756 22.2287C168.756 22.7546 168.66 23.3044 168.015 23.3044C167.592 23.3044 167.107 23.2888 166.588 23.2722C165.993 23.2531 165.355 23.2326 164.716 23.2326C164.119 23.2326 163.521 23.2506 162.923 23.2685C162.326 23.2864 161.728 23.3044 161.131 23.3044C160.151 23.3044 159.84 23.0414 159.84 22.0613C159.84 21.4159 160.055 21.2964 160.413 21.153Z" fill="#CF3110"/>
</svg>
