<svg width="346" height="345" viewBox="0 0 346 345" fill="none" xmlns="http://www.w3.org/2000/svg">
<g opacity="0.1">
<path fill-rule="evenodd" clip-rule="evenodd" d="M307.823 0.000969339C313.628 0.0156699 313.629 0.331731 313.651 7.12705V42.1183C315.927 42.1183 318.157 42.1554 320.355 42.1918C325.415 42.2758 330.299 42.3568 335.148 41.9758C339.011 41.3244 342.91 42.9105 345.25 46.0854V53.0695L332.516 58.7944C332.164 65.0658 330.167 67.6789 323.401 68.8429C321.41 69.1954 319.402 69.4026 317.387 69.6105C316.143 69.7389 314.897 69.8674 313.651 70.0306C303.126 71.3847 292.882 73.5464 285.623 82.407C282.742 85.9288 279.974 89.5645 277.209 93.1957L277.207 93.1985L277.202 93.2055L277.2 93.2082C275.977 94.8141 274.754 96.4203 273.524 98.0141C276.727 101.676 276.719 101.696 274.837 106.578L274.769 106.756C260.588 144.543 239.544 179.317 212.722 209.283C203.733 219.169 196.056 230.197 189.886 242.089C182.141 257.289 178.96 327.808 177.269 344.541L176.765 344.54L176.764 349H127.634C126.74 317.641 126.284 239.601 126.265 222.958L126.265 221.921C126.265 207.667 126.265 207.667 113.314 203.033L112.991 202.917C108.644 201.373 105.003 201.159 101.079 204.081C97.3689 206.809 93.3748 209.119 89.1681 210.97C84.9157 212.846 84.1874 215.721 84.4693 220.02C85.3386 242.754 86.0199 319.526 86.6777 342.236C86.7435 344.491 86.8061 346.746 86.8661 349H-18.7914C-18.8053 348.709 -18.8191 348.418 -18.8327 348.128C-19.9604 324.087 -20.8297 245.914 -16.4833 222.087C-12.7728 198.882 1.98442 179.004 22.9862 168.923C26.2621 167.255 25.9997 165.192 25.6754 162.643L25.6645 162.557C25.4975 161.277 25.3327 159.996 25.1679 158.716L25.1665 158.705C24.3809 152.602 23.5961 146.505 22.5868 140.441C22.361 137.853 21.4162 135.382 19.8615 133.314C11.4255 124.993 6.65804 113.589 6.63452 101.672C6.63452 90.8163 7.83271 80.2928 16.9718 72.8812C19.7398 70.894 21.542 67.8108 21.929 64.4007C25.1711 42.1896 36.9885 26.3925 57.7569 18.4345C79.3712 10.0489 100.046 14.0873 118.371 27.0576C130.948 35.9769 142.843 45.867 154.667 55.8381L161.113 61.2795C163.261 63.0924 165.412 64.9027 167.567 66.7049C175.061 72.9762 175.39 77.6798 170.222 86.0891C169.154 87.9575 167.77 89.6218 166.134 91.0064C163.361 93.1206 163.549 95.2586 164.442 98.323C164.641 99.0175 164.846 99.7159 165.052 100.417L165.053 100.419C166.383 104.947 167.75 109.596 167.567 114.12C167.177 124.193 163.099 133.76 156.125 140.963C151.434 145.435 146.467 149.6 141.254 153.435L143.768 173.484C145.457 172.667 147.142 171.893 148.81 171.127C152.427 169.465 155.96 167.841 159.273 165.906C176.165 155.81 189.463 141.557 202.267 126.805C211.946 115.664 221.062 104.167 224.351 89.2247C224.727 87.5619 224.727 84.7825 223.764 84.0224C216.159 77.8275 208.188 72.1077 199.894 66.8949L199.703 66.7858L199.329 66.5735C195.424 64.3567 192.267 62.565 193.433 56.9653H183.683C178.397 56.799 176.377 54.3047 176.635 48.4847C176.847 43.8762 179.596 41.667 184.482 41.8095C187.176 41.8918 189.874 41.9028 192.58 41.9139C196.129 41.9285 199.692 41.9431 203.277 42.1183C207.13 42.1183 208.399 40.598 208.328 36.7497C208.228 31.2639 208.235 25.7714 208.242 20.2793C208.247 15.4736 208.253 10.6682 208.187 5.86803C208.187 1.5921 209.456 -0.023245 213.802 0.000252298L307.823 0.000969339ZM129.977 158.78C123.215 162.161 116.691 166.011 110.453 170.301C107.014 172.995 102.23 173.072 98.7066 170.491C91.1416 166.12 83.2712 162.248 75.3773 158.613C71.9002 156.974 69.6683 159.041 70.1616 162.771C70.3907 163.725 70.5633 164.693 70.6785 165.669C70.6785 175.699 70.7578 185.729 70.8371 195.759C70.8635 199.103 70.8899 202.447 70.9134 205.791C70.9134 211.326 73.4508 212.704 78.2435 209.925C79.9798 208.913 81.7233 207.908 83.468 206.903L83.4699 206.902L83.4717 206.901L83.4735 206.9C88.0772 204.248 92.6895 201.591 97.203 198.783C103.429 194.911 109.208 193.819 115.998 197.121C121.039 199.079 126.185 200.752 131.41 202.133C135.592 203.582 136.884 201.491 136.954 197.833C136.979 196.538 137.019 195.151 137.06 193.723L137.06 193.72C137.134 191.115 137.213 188.375 137.213 185.813H137.377C137.264 183.665 137.147 181.516 137.03 179.367L137.03 179.365C136.734 173.935 136.438 168.501 136.203 163.056C135.991 157.877 134.746 156.499 129.977 158.78ZM30.1481 147.331C30.585 150.862 30.9816 154.067 30.9975 157.283C30.9975 166.263 35.2734 171.94 43.2378 175.432C46.2882 177.037 49.2242 178.854 52.0245 180.872C54.9579 182.744 57.9485 184.588 61.1304 186.549L61.1325 186.55L61.1344 186.551C62.0286 187.103 62.9379 187.663 63.8653 188.236V163.84C63.7509 162.875 63.228 162.008 62.4322 161.464C53.863 156.368 45.2787 151.334 36.2528 146.041L36.2437 146.036C34.0379 144.742 31.8057 143.433 29.5409 142.104C29.7286 143.94 29.9426 145.67 30.1477 147.328L30.1481 147.331ZM41.8047 36.5359C33.0415 44.969 29.5409 55.54 28.2018 67.4176C43.2854 65.9205 58.4535 69.2437 71.5713 76.9196C80.4519 81.8844 82.3314 88.0845 77.7736 97.159C74.7899 103.098 73.2863 103.335 68.3761 99.0356C66.6803 97.4874 64.7637 96.2061 62.6906 95.2348C57.6129 92.8815 51.6201 94.0135 47.7251 98.0617C42.0631 104.214 43.7312 111.388 45.6577 118.277C47.0499 123.182 51.2539 123.051 55.2743 122.926L55.4069 122.922C55.5484 122.918 55.6896 122.914 55.8305 122.91C60.0123 122.791 62.0093 125.142 62.0328 129.442C62.5675 137.013 58.3614 144.114 51.5076 147.211C52.7841 147.975 54.0074 148.717 55.1958 149.438C58.1846 151.252 60.9543 152.934 63.7948 154.48C64.8045 154.937 65.9713 154.866 66.9195 154.29C71.6183 149.872 76.4815 151.249 81.3917 153.839C82.5692 154.466 83.7467 155.095 84.9244 155.723C90.2553 158.568 95.589 161.414 100.938 164.196C101.033 164.246 101.131 164.297 101.232 164.351C102.476 165.009 104.108 165.873 104.956 165.455C108.399 163.714 111.679 161.744 114.951 159.777L114.954 159.775C116.146 159.059 117.337 158.343 118.535 157.64L118.065 156.357C115.697 156.391 113.332 156.152 111.017 155.644C109.067 154.979 106.107 153.269 106.013 151.891C105.832 148.857 108.171 148.842 110.396 148.9L110.949 148.914C111.131 148.918 111.311 148.921 111.487 148.921C113.376 148.921 115.277 148.989 117.18 149.057C121.644 149.217 126.114 149.376 130.447 148.66C146.422 146.047 159.203 132.031 160.331 116.757C159.976 116.807 159.627 116.852 159.282 116.897L159.28 116.897C158.322 117.022 157.399 117.141 156.501 117.351C144.305 120.645 131.289 118.183 121.096 110.652C120.197 110.002 119.912 108.475 119.627 106.944C119.495 106.236 119.363 105.527 119.17 104.903C119.626 104.903 120.113 104.877 120.608 104.849C122.149 104.765 123.765 104.677 124.761 105.378C132.192 110.709 141.331 113.023 150.369 111.863C161.576 110.818 162.116 109.963 158.052 99.5107C157.879 99.1229 157.688 98.7431 157.481 98.3727L157.245 97.9729L156.944 97.8181C156.122 97.432 155.062 97.1908 154.035 96.9568C152.309 96.564 150.673 96.1913 150.393 95.1873C149.645 92.5802 151.463 91.9464 153.32 91.2992C154.204 90.9911 155.097 90.6799 155.726 90.1512C159.306 87.1883 162.659 83.9563 165.758 80.4829C168.107 77.846 167.261 74.9954 164.466 72.7387C160.225 69.3239 156.037 65.8453 151.863 62.3551L145.606 57.1178C135.178 48.3964 124.708 39.7666 113.578 32.0462C89.6615 15.18 61.234 17.7931 41.8047 36.5359ZM231.305 89.9137C230.898 90.9925 230.49 92.0621 230.084 93.1257L230.083 93.1273C228.639 96.9109 227.224 100.617 225.996 104.381C225.761 105.093 226.771 106.756 227.617 107.207C237.79 111.697 248.009 116.092 258.3 120.296C259.696 120.595 261.147 120.156 262.153 119.132C263.856 115.688 265.3 112.044 266.78 108.308L266.781 108.306C267.342 106.89 267.908 105.461 268.496 104.024L231.305 89.9137ZM300.142 58.937C294.215 59.1353 288.317 59.8747 282.522 61.1462C279.285 61.8984 276.12 62.9879 272.968 64.1418L269.187 65.5399C267.926 66.0046 266.663 66.4621 265.395 66.8949C256.608 69.9356 247.751 71.4084 238.565 68.4628C229.379 65.5171 220.475 62.9278 211.383 60.3385C208.546 59.6743 205.675 59.1667 202.784 58.8182C202.925 60.3597 203.37 60.7648 203.839 61.1916L203.841 61.1937C206.309 63.0205 208.771 64.8516 211.231 66.6818L211.238 66.6863C216.902 70.8998 222.56 75.1083 228.275 79.2476C231.465 81.7325 234.888 83.8966 238.494 85.709C241.671 87.2531 244.986 88.3656 248.298 89.4771C250.082 90.0756 251.865 90.6739 253.624 91.339C255.588 92.0817 257.224 92.7622 258.618 93.3418C262.011 94.7531 263.965 95.5655 265.69 95.218C268.03 94.7464 269.949 92.14 274.472 85.9977L274.879 85.4456L275.333 84.83C282.099 75.6368 289.899 68.2015 301.176 65.6122C304.485 64.84 307.87 64.4249 311.253 64.0101C313.178 63.7741 315.102 63.5382 317.011 63.2367C318.506 62.8913 319.972 62.5042 321.427 62.1202C322.874 61.7382 324.309 61.3591 325.75 61.0274H325.703L325.445 59.4596C324.41 59.2047 323.358 59.0299 322.297 58.937C319.839 58.937 317.378 58.8948 314.916 58.8526C309.99 58.7681 305.061 58.6835 300.142 58.937ZM307.637 30.249H213.661V43.3536H307.637V30.249ZM307.637 5.34541H213.661V18.45H307.637V5.34541ZM99.2 32.498C100.059 33.3668 100.944 34.0957 101.767 34.7744C103.195 35.9514 104.439 36.977 105.05 38.318C105.59 39.4345 103.828 41.9288 102.701 43.4966C100.846 46.1022 98.9048 48.6519 96.9637 51.2012C95.5602 53.0444 94.1564 54.888 92.7862 56.752C91.9848 57.8553 91.2237 58.9868 90.4635 60.1169C89.1289 62.101 87.7965 64.0817 86.2549 65.8977C85.1043 66.6921 83.6516 66.8944 82.3315 66.4441C81.7441 66.2303 81.1568 64.0686 81.5092 63.0946C81.8425 62.2819 82.1751 61.4686 82.5078 60.6554C85.4808 53.3867 88.4565 46.1117 91.9639 39.1257C92.795 37.4449 94.4531 36.1981 96.3232 34.7918C97.2548 34.0912 98.2391 33.3511 99.2 32.498ZM120.186 71.6332C122.516 69.4669 123.843 66.4134 123.845 63.2129C123.724 63.0792 123.578 62.8588 123.407 62.6008C122.88 61.8039 122.114 60.6479 121.12 60.5761C119.551 60.6957 118.139 61.5826 117.337 62.9516C114.988 67.9877 113.226 68.9141 107.94 66.9187C106.395 66.0238 104.756 65.3067 103.053 64.7807C101.318 64.8916 99.6128 65.2847 98.002 65.9447C98.2165 66.4534 98.3891 67.0538 98.5623 67.6564C98.9392 68.9676 99.319 70.2889 100.14 70.6958C103.738 72.5746 107.595 73.8959 111.581 74.6154C114.736 74.881 117.856 73.7995 120.186 71.6332Z" fill="#3E4358"/>
</g>
</svg>
