<svg width="14" height="14" viewBox="0 0 14 14" fill="none" xmlns="http://www.w3.org/2000/svg">
<path fill-rule="evenodd" clip-rule="evenodd" d="M13.4242 1.42368C13.6585 1.18936 13.6585 0.809465 13.4242 0.57515C13.1899 0.340835 12.81 0.340835 12.5756 0.57515L6.9999 6.15089L1.42417 0.57515C1.18985 0.340835 0.809953 0.340835 0.575638 0.57515C0.341324 0.809465 0.341324 1.18936 0.575638 1.42368L6.15137 6.99941L0.575638 12.5752C0.341324 12.8095 0.341324 13.1894 0.575638 13.4237C0.809953 13.658 1.18985 13.658 1.42417 13.4237L6.9999 7.84794L12.5756 13.4237C12.81 13.658 13.1899 13.658 13.4242 13.4237C13.6585 13.1894 13.6585 12.8095 13.4242 12.5752L7.84843 6.99941L13.4242 1.42368Z" fill="#777B87"/>
</svg>
