<svg width="73" height="63" viewBox="0 0 73 63" fill="none" xmlns="http://www.w3.org/2000/svg">
<path fill-rule="evenodd" clip-rule="evenodd" d="M65.5146 0.246288C66.6755 0.249237 66.6757 0.31263 66.6802 1.67559V8.6939C67.1354 8.6939 67.5815 8.70132 68.0209 8.70863C69.0331 8.72547 70.0097 8.74172 70.9795 8.66531C71.7521 8.53466 72.5319 8.85279 73 9.48959V10.8904L70.4533 12.0387C70.3828 13.2965 69.9834 13.8206 68.6302 14.0541C68.2321 14.1248 67.8304 14.1664 67.4274 14.2081C67.1787 14.2338 66.9294 14.2596 66.6802 14.2923C64.5751 14.5639 62.5265 14.9975 61.0746 16.7747C60.4984 17.4811 59.9448 18.2103 59.3919 18.9387L59.3915 18.9392L59.3904 18.9406L59.39 18.9412C59.1455 19.2632 58.9009 19.5854 58.6547 19.9051C59.2954 20.6396 59.2939 20.6436 58.9175 21.6228L58.9038 21.6585C56.0675 29.2376 51.8587 36.2122 46.4943 42.2227C44.6965 44.2055 43.1612 46.4174 41.9272 48.8026C40.3782 51.8514 39.7421 65.9956 39.4038 69.3517L39.303 69.3515L39.3028 70.2461H29.4767C29.298 63.9564 29.2067 48.3037 29.2031 44.9654L29.2029 44.7574C29.2029 41.8985 29.2029 41.8985 26.6129 40.969L26.5482 40.9457C25.6789 40.636 24.9506 40.5932 24.1659 41.1792C23.4238 41.7264 22.625 42.1897 21.7836 42.561C20.9331 42.9374 20.7875 43.5139 20.8439 44.3763C21.0177 48.936 21.154 64.3345 21.2855 68.8895C21.2987 69.3418 21.3112 69.794 21.3232 70.2461H0.19172C0.188939 70.1878 0.186185 70.1295 0.183458 70.0711C-0.0420822 65.2493 -0.215936 49.5697 0.653333 44.7908C1.39543 40.1364 4.34688 36.1495 8.54723 34.1275C9.20242 33.793 9.14994 33.3792 9.08508 32.8678L9.08289 32.8506C9.04951 32.5938 9.01654 32.337 8.98359 32.0803L8.98329 32.078C8.82618 30.854 8.66922 29.6311 8.46736 28.4147C8.4222 27.8957 8.23325 27.4002 7.9223 26.9853C6.2351 25.3164 5.28161 23.0289 5.2769 20.6388C5.2769 18.4614 5.51654 16.3507 7.34435 14.8641C7.89795 14.4655 8.2584 13.8471 8.33579 13.1631C8.98422 8.70819 11.3477 5.53971 15.5014 3.94356C19.8242 2.26164 23.9591 3.07163 27.6242 5.67312C30.1396 7.46208 32.5185 9.44578 34.8833 11.4457L36.1725 12.5371C36.6023 12.9007 37.0323 13.2638 37.4633 13.6253C38.9622 14.8832 39.028 15.8266 37.9943 17.5132C37.7808 17.888 37.5041 18.2218 37.1767 18.4995C36.6223 18.9236 36.6599 19.3524 36.8384 19.967C36.8781 20.1063 36.9192 20.2464 36.9604 20.3871L36.9605 20.3875C37.2267 21.2956 37.5 22.228 37.4633 23.1355C37.3854 25.1558 36.5699 27.0747 35.1751 28.5196C34.2369 29.4164 33.2434 30.2519 32.2007 31.021L32.7035 35.0423C33.0415 34.8785 33.3785 34.7232 33.7119 34.5696C34.4355 34.2362 35.1421 33.9106 35.8047 33.5224C39.1831 31.4975 41.8426 28.6387 44.4034 25.6798C46.3393 23.4452 48.1624 21.1391 48.8202 18.1422C48.8954 17.8087 48.8954 17.2512 48.7028 17.0987C47.1819 15.8562 45.5876 14.709 43.9288 13.6634L43.8906 13.6415L43.8158 13.5989C43.0348 13.1543 42.4035 12.7949 42.6367 11.6718H40.6867C39.6295 11.6384 39.2254 11.1382 39.2771 9.97082C39.3194 9.04648 39.8691 8.60337 40.8465 8.63196C41.3852 8.64845 41.9247 8.65067 42.466 8.6529C43.1757 8.65582 43.8883 8.65876 44.6054 8.6939C45.376 8.6939 45.6298 8.38896 45.6157 7.61709C45.5956 6.51679 45.597 5.41514 45.5983 4.31358C45.5995 3.34968 45.6006 2.38585 45.5875 1.42306C45.5875 0.565427 45.8412 0.241431 46.7105 0.246144L65.5146 0.246288ZM29.9453 32.093C28.5929 32.7713 27.2883 33.5434 26.0407 34.4039C25.3528 34.9441 24.3959 34.9597 23.6913 34.442C22.1783 33.5653 20.6042 32.7887 19.0255 32.0597C18.33 31.7309 17.8837 32.1455 17.9823 32.8935C18.0281 33.085 18.0626 33.2791 18.0857 33.4748C18.0857 35.4866 18.1016 37.4983 18.1174 39.5101C18.1227 40.1808 18.128 40.8515 18.1327 41.5223C18.1327 42.6324 18.6402 42.9088 19.5987 42.3513C19.946 42.1484 20.2947 41.9469 20.6436 41.7453L20.644 41.7451L20.6443 41.7449L20.6447 41.7447C21.5654 41.2127 22.4879 40.6797 23.3906 40.1167C24.6358 39.3401 25.7917 39.1209 27.1496 39.7832C28.1579 40.176 29.1869 40.5116 30.232 40.7885C31.0683 41.0791 31.3268 40.6599 31.3409 39.9261C31.3459 39.6663 31.3538 39.3881 31.362 39.1016L31.362 39.1011C31.3769 38.5786 31.3926 38.029 31.3926 37.5152H31.4255C31.4028 37.0843 31.3794 36.6533 31.356 36.2223L31.356 36.2219C31.2968 35.1328 31.2376 34.0428 31.1905 32.9507C31.1482 31.912 30.8992 31.6356 29.9453 32.093ZM9.97963 29.7968C10.067 30.5049 10.1463 31.1478 10.1495 31.7929C10.1495 33.5939 11.0047 34.7326 12.5976 35.433C13.2076 35.7549 13.7948 36.1195 14.3549 36.5242C14.9416 36.8997 15.5397 37.2694 16.1761 37.6628L16.1765 37.6631L16.1769 37.6633C16.3557 37.7738 16.5376 37.8862 16.7231 38.0012V33.1079C16.7002 32.9145 16.5956 32.7406 16.4364 32.6314C14.7226 31.6094 13.0057 30.5996 11.2006 29.538L11.1987 29.5369C10.7576 29.2774 10.3111 29.0149 9.85819 28.7483C9.89572 29.1166 9.93852 29.4636 9.97955 29.7962L9.97963 29.7968ZM12.3109 7.57421C10.5583 9.26566 9.85819 11.3859 9.59036 13.7682C12.6071 13.468 15.6407 14.1345 18.2643 15.6741C20.0404 16.6699 20.4163 17.9135 19.5047 19.7336C18.908 20.9247 18.6073 20.9724 17.6252 20.11C17.2861 19.7994 16.9027 19.5424 16.4881 19.3476C15.4726 18.8756 14.274 19.1027 13.495 19.9146C12.3626 21.1487 12.6962 22.5876 13.0815 23.9693C13.36 24.953 14.2008 24.9268 15.0049 24.9018L15.0314 24.901C15.0597 24.9001 15.0879 24.8992 15.1161 24.8984C15.9525 24.8746 16.3519 25.3463 16.3566 26.2087C16.4635 27.7273 15.6223 29.1515 14.2515 29.7727C14.5068 29.9258 14.7515 30.0747 14.9892 30.2194C15.5869 30.5833 16.1409 30.9204 16.709 31.2306C16.9109 31.3223 17.1443 31.3081 17.3339 31.1925C18.2737 30.3063 19.2463 30.5826 20.2283 31.102C20.4638 31.2279 20.6993 31.3539 20.9349 31.4799C22.0011 32.0505 23.0678 32.6213 24.1377 33.1794C24.1567 33.1894 24.1763 33.1997 24.1964 33.2104C24.4452 33.3424 24.7716 33.5157 24.9412 33.4319C25.6298 33.0827 26.2857 32.6875 26.9402 32.2931L26.9409 32.2927C27.1793 32.1491 27.4175 32.0055 27.6571 31.8643L27.5631 31.607C27.0894 31.6139 26.6165 31.5659 26.1535 31.4641C25.7635 31.3307 25.1714 30.9876 25.1526 30.7113C25.1164 30.1028 25.5841 30.0999 26.0292 30.1114L26.1397 30.1143C26.1762 30.1151 26.2122 30.1157 26.2474 30.1157C26.6252 30.1157 27.0054 30.1293 27.386 30.143C28.2787 30.1749 29.1729 30.207 30.0393 30.0633C33.2345 29.5392 35.7906 26.7281 36.0161 23.6644C35.9453 23.6745 35.8754 23.6836 35.8065 23.6925L35.806 23.6926C35.6145 23.7175 35.4298 23.7415 35.2502 23.7835C32.811 24.4443 30.2078 23.9503 28.1692 22.4399C27.9893 22.3096 27.9324 22.0033 27.8754 21.6961C27.849 21.5541 27.8226 21.4119 27.7839 21.2868C27.8752 21.2868 27.9726 21.2815 28.0715 21.2761C28.3799 21.2592 28.703 21.2414 28.9022 21.3821C30.3883 22.4513 32.2162 22.9156 34.0239 22.6829C36.2652 22.4732 36.3732 22.3017 35.5604 20.2053C35.5257 20.1275 35.4876 20.0513 35.4463 19.977L35.399 19.8968L35.3387 19.8658C35.1743 19.7883 34.9625 19.74 34.7569 19.693C34.4119 19.6142 34.0845 19.5395 34.0286 19.3381C33.879 18.8152 34.2426 18.6881 34.614 18.5583C34.7908 18.4965 34.9694 18.434 35.0952 18.328C35.8111 17.7337 36.4818 17.0855 37.1015 16.3888C37.5714 15.8599 37.4023 15.2882 36.8431 14.8355C35.995 14.1506 35.1574 13.4529 34.3225 12.7529L33.0712 11.7024C30.9855 9.9531 28.8917 8.2222 26.6656 6.67369C21.8823 3.2908 16.1968 3.81491 12.3109 7.57421ZM50.2111 18.2804C50.1296 18.4967 50.048 18.7113 49.9668 18.9246L49.9666 18.9249C49.6778 19.6838 49.3949 20.4271 49.1491 21.182C49.1022 21.325 49.3042 21.6585 49.4734 21.749C51.5079 22.6495 53.5519 23.531 55.6099 24.3743C55.8892 24.4341 56.1794 24.3462 56.3805 24.1409C56.7212 23.45 57.01 22.719 57.306 21.9698L57.3061 21.9694C57.4184 21.6853 57.5317 21.3987 57.6492 21.1105L50.2111 18.2804ZM63.9784 12.0673C62.7929 12.107 61.6135 12.2554 60.4543 12.5104C59.807 12.6613 59.1741 12.8798 58.5436 13.1112L57.7874 13.3916C57.5353 13.4848 57.2827 13.5766 57.0289 13.6634C55.2716 14.2733 53.5002 14.5687 51.663 13.9779C49.8258 13.3871 48.0449 12.8677 46.2265 12.3484C45.6592 12.2151 45.0851 12.1133 44.5068 12.0434C44.5349 12.3526 44.624 12.4339 44.7178 12.5195L44.7182 12.5199C45.2119 12.8863 45.7042 13.2536 46.1963 13.6207L46.1975 13.6216C47.3304 14.4667 48.4619 15.3108 49.6049 16.141C50.243 16.6394 50.9276 17.0735 51.6489 17.437C52.2842 17.7467 52.9472 17.9699 53.6097 18.1928C53.9664 18.3128 54.323 18.4328 54.6749 18.5662C55.0675 18.7152 55.3948 18.8517 55.6736 18.9679C56.3523 19.251 56.743 19.414 57.088 19.3443C57.556 19.2497 57.9399 18.7269 58.8445 17.4949L58.9258 17.3842L59.0165 17.2607C60.3698 15.4168 61.9297 13.9255 64.1851 13.4061C64.847 13.2513 65.5241 13.168 66.2006 13.0848C66.5856 13.0375 66.9704 12.9901 67.3521 12.9297C67.6512 12.8604 67.9445 12.7828 68.2354 12.7057C68.5247 12.6291 68.8118 12.5531 69.1 12.4866H69.0906L69.039 12.1721C68.832 12.121 68.6215 12.0859 68.4093 12.0673C67.9177 12.0673 67.4255 12.0588 66.9332 12.0503C65.9481 12.0334 64.9622 12.0164 63.9784 12.0673ZM65.4773 6.31323H46.6823V8.94166H65.4773V6.31323ZM65.4773 1.31824H46.6823V3.94668H65.4773V1.31824ZM23.79 6.76432C23.9618 6.93857 24.1387 7.08478 24.3034 7.2209C24.5889 7.45697 24.8378 7.66268 24.96 7.93165C25.0681 8.15559 24.7156 8.65588 24.4901 8.97034C24.1192 9.49296 23.731 10.0043 23.3427 10.5157C23.062 10.8854 22.7813 11.2551 22.5072 11.629C22.347 11.8503 22.1947 12.0773 22.0427 12.3039C21.7758 12.7019 21.5093 13.0992 21.201 13.4634C20.9709 13.6227 20.6803 13.6633 20.4163 13.573C20.2988 13.5301 20.1814 13.0965 20.2518 12.9012C20.3185 12.7382 20.385 12.575 20.4516 12.4119C21.0462 10.954 21.6413 9.49485 22.3428 8.09365C22.509 7.75654 22.8406 7.50646 23.2146 7.22439C23.401 7.08388 23.5978 6.93542 23.79 6.76432ZM27.9872 14.6138C28.4532 14.1793 28.7186 13.5668 28.719 12.9249C28.6949 12.8981 28.6657 12.8539 28.6315 12.8021C28.5259 12.6423 28.3727 12.4104 28.174 12.396C27.8602 12.42 27.5777 12.5979 27.4175 12.8725C26.9476 13.8826 26.5952 14.0684 25.538 13.6682C25.229 13.4887 24.9012 13.3449 24.5606 13.2394C24.2137 13.2616 23.8726 13.3404 23.5504 13.4728C23.5933 13.5748 23.6278 13.6953 23.6625 13.8161C23.7378 14.0791 23.8138 14.3442 23.978 14.4258C24.6976 14.8026 25.469 15.0676 26.2663 15.2119C26.8971 15.2652 27.5212 15.0483 27.9872 14.6138Z" fill="#3E4358"/>
</svg>
