<svg width="27" height="26" viewBox="0 0 27 26" fill="none" xmlns="http://www.w3.org/2000/svg">
<path fill-rule="evenodd" clip-rule="evenodd" d="M19.3509 19.8308L16.038 16.5179L15.7715 16.7135C14.7898 17.4338 13.5789 17.8591 12.2674 17.8591C8.99263 17.8591 6.33789 15.2044 6.33789 11.9296C6.33789 8.6548 8.99263 6.00006 12.2674 6.00006C15.5422 6.00006 18.1969 8.6548 18.1969 11.9296C18.1969 13.2413 17.7715 14.4525 17.0509 15.4343L16.8552 15.7008L20.1681 19.0136C20.3937 19.2393 20.3937 19.6052 20.1681 19.8308C19.9424 20.0565 19.5765 20.0565 19.3509 19.8308ZM15.6729 15.2729L15.6863 15.2614L15.6986 15.2487C16.5294 14.39 17.0413 13.2192 17.0413 11.9296C17.0413 9.29305 14.9039 7.15572 12.2674 7.15572C9.63088 7.15572 7.49355 9.29305 7.49355 11.9296C7.49355 14.5661 9.63088 16.7034 12.2674 16.7034C13.5568 16.7034 14.7274 16.1918 15.586 15.3613L15.5987 15.349L15.6102 15.3356C15.6198 15.3246 15.6298 15.3137 15.6404 15.3031C15.651 15.2925 15.6618 15.2825 15.6729 15.2729Z" fill="#3E4358"/>
</svg>
