<svg width="82" height="57" viewBox="0 0 82 57" fill="none" xmlns="http://www.w3.org/2000/svg">
<g filter="url(#filter0_d_160_5000)">
<rect x="0.320312" y="27.1499" width="103.5" height="30.4961" rx="8" transform="rotate(-14.852 0.320312 27.1499)" fill="white"/>
<rect x="0.93177" y="27.505" width="102.5" height="29.4961" rx="7.5" transform="rotate(-14.852 0.93177 27.505)" stroke="#F78000"/>
</g>
<path d="M27.5489 40.5483C26.1145 40.9286 24.8026 40.7696 23.6131 40.0712C22.4327 39.3703 21.6595 38.3297 21.2935 36.9494C20.9274 35.5692 21.0834 34.2822 21.7615 33.0885C22.4485 31.8924 23.5092 31.1042 24.9437 30.7238C25.8097 30.4942 26.6586 30.4911 27.4904 30.7147C28.3312 30.9359 29.0479 31.3446 29.6404 31.9406L28.713 32.8673C28.3036 32.4158 27.7876 32.1085 27.1649 31.9453C26.5489 31.7707 25.9162 31.7695 25.2666 31.9417C24.175 32.2312 23.3752 32.8199 22.8671 33.7078C22.3681 34.5933 22.2585 35.5638 22.5384 36.6193C22.816 37.6658 23.3908 38.45 24.2631 38.9718C25.1443 39.4913 26.1308 39.6063 27.2224 39.3168C27.8719 39.1446 28.4222 38.8345 28.8731 38.3866C29.3306 37.9273 29.6266 37.4047 29.7608 36.8187L31.022 37.1505C30.8117 37.9595 30.3974 38.6728 29.7791 39.2906C29.1584 39.8994 28.415 40.3186 27.5489 40.5483ZM35.8742 30.9103L37.0515 30.5981L38.8458 37.3642L37.6685 37.6764L37.4101 36.7021C37.1353 37.5957 36.5063 38.1729 35.5229 38.4337C34.729 38.6442 34.0272 38.5648 33.4175 38.1954C32.8054 37.817 32.3857 37.1993 32.1584 36.3422L31.0567 32.1878L32.2341 31.8756L33.3178 35.9624C33.4637 36.5127 33.7262 36.9017 34.1053 37.1295C34.4819 37.3483 34.9319 37.3883 35.4551 37.2495C36.0415 37.094 36.4673 36.788 36.7325 36.3314C36.9952 35.8659 37.0262 35.2542 36.8252 34.4964L35.8742 30.9103ZM40.3978 31.6661C40.4671 31.9277 40.6542 32.105 40.9588 32.198C41.2611 32.282 41.6104 32.3246 42.0066 32.3257C42.4004 32.3179 42.799 32.328 43.2024 32.3562C43.6033 32.3754 43.9741 32.4992 44.3147 32.7275C44.6529 32.9468 44.883 33.2865 45.005 33.7466C45.1677 34.3601 45.059 34.9152 44.6789 35.4118C44.3079 35.9061 43.7525 36.2514 43.0127 36.4475C42.3541 36.6222 41.752 36.6274 41.2064 36.4631C40.6607 36.2988 40.2252 36.0039 39.8999 35.5784L40.7606 34.7273C40.9549 35.0234 41.2261 35.2267 41.574 35.3372C41.922 35.4477 42.3035 35.4479 42.7185 35.3379C43.1064 35.235 43.4075 35.0779 43.6218 34.8666C43.8338 34.6462 43.8979 34.3782 43.8141 34.0624C43.7448 33.8008 43.5589 33.628 43.2566 33.544C42.9519 33.451 42.6027 33.4084 42.2089 33.4163C41.8127 33.4152 41.4129 33.4005 41.0095 33.3723C40.6062 33.344 40.2354 33.2203 39.8972 33.001C39.559 32.7817 39.3301 32.4465 39.2105 31.9954C39.055 31.409 39.1525 30.8665 39.5031 30.368C39.8628 29.8671 40.3854 29.5257 41.071 29.3439C41.6213 29.198 42.142 29.1951 42.633 29.3353C43.1306 29.464 43.5463 29.7207 43.88 30.1053L43.0393 30.9221C42.6426 30.4093 42.0834 30.2486 41.3617 30.44C41.0279 30.5285 40.7653 30.6851 40.5738 30.9097C40.3799 31.1252 40.3212 31.3774 40.3978 31.6661ZM48.8818 28.6776L47.0821 29.1548L48.0545 32.8221C48.1431 33.1559 48.2696 33.3782 48.4342 33.489C48.6054 33.5885 48.8275 33.6068 49.1006 33.5441C49.3712 33.4723 49.7026 33.3748 50.0948 33.2515L50.3747 34.307C49.3821 34.715 48.6073 34.8336 48.0502 34.6627C47.4907 34.4827 47.0997 33.9733 46.8772 33.1343L45.9047 29.467L44.565 29.8223L44.2636 28.6856L45.6033 28.3303L45.1942 26.7876L46.2782 26.1236L46.7806 28.0181L48.5804 27.5408L48.8818 28.6776ZM56.9771 31.6436C56.4643 32.5135 55.7117 33.08 54.7193 33.3432C53.7269 33.6063 52.7925 33.4872 51.916 32.9858C51.0486 32.4819 50.4821 31.7293 50.2165 30.7279C49.951 29.7266 50.0701 28.7921 50.5739 27.9247C51.0868 27.0548 51.8394 26.4883 52.8317 26.2252C53.8241 25.962 54.7585 26.0811 55.635 26.5826C56.5115 27.084 57.0825 27.8354 57.348 28.8368C57.6136 29.8382 57.4899 30.7738 56.9771 31.6436ZM54.4143 32.1929C55.0909 32.0135 55.5982 31.6327 55.9363 31.0506C56.2744 30.4685 56.3525 29.8346 56.1707 29.149C55.9889 28.4634 55.6069 27.9515 55.0248 27.6134C54.4427 27.2753 53.8134 27.196 53.1368 27.3754C52.4692 27.5525 51.9663 27.932 51.6282 28.5141C51.2902 29.0962 51.212 29.7301 51.3938 30.4157C51.5757 31.1014 51.9576 31.6132 52.5397 31.9513C53.1218 32.2894 53.7467 32.3699 54.4143 32.1929ZM65.1672 22.954C65.9251 22.7531 66.6043 22.8385 67.205 23.2102C67.8033 23.573 68.2137 24.1739 68.4362 25.0129L69.5522 29.2214L68.3749 29.5336L67.2697 25.3657C67.1309 24.8424 66.8879 24.4724 66.5407 24.2554C66.1935 24.0385 65.7944 23.9899 65.3433 24.1095C64.8381 24.2435 64.4776 24.5225 64.2618 24.9467C64.0526 25.3594 64.0401 25.9131 64.2243 26.6078L65.2219 30.3698L64.0446 30.682L62.9393 26.514C62.8006 25.9908 62.5621 25.6195 62.2239 25.4002C61.8948 25.1785 61.5092 25.1262 61.0671 25.2435C60.5709 25.375 60.2014 25.6565 59.9585 26.0878C59.7246 26.5168 59.6986 27.0741 59.8804 27.7597L60.878 31.5217L59.7007 31.8339L57.9065 25.0677L59.0838 24.7555L59.3242 25.6622C59.5929 24.8185 60.1693 24.2794 61.0534 24.0449C61.9646 23.8033 62.7294 24.0109 63.3477 24.6677C63.6135 23.7764 64.22 23.2052 65.1672 22.954ZM71.3242 25.7099C71.6018 26.2833 72.0013 26.6794 72.5229 26.8984C73.0535 27.1149 73.639 27.1383 74.2795 26.9684C75.1727 26.7316 75.7349 26.2301 75.9662 25.4638L77.1183 25.7666C76.7301 26.9607 75.8729 27.7336 74.5467 28.0853C73.4732 28.37 72.5096 28.2682 71.6559 27.78C70.8089 27.2805 70.249 26.5164 69.9763 25.488C69.706 24.4686 69.8104 23.5332 70.2895 22.682C70.7687 21.8307 71.5315 21.2663 72.578 20.9888C73.5703 20.7257 74.4711 20.8634 75.2801 21.402C76.0959 21.9292 76.6341 22.6844 76.8949 23.6678C76.9403 23.8392 76.9734 24.0187 76.9942 24.2063L71.3242 25.7099ZM72.8722 22.0985C72.2407 22.2659 71.7653 22.5851 71.446 23.056C71.1243 23.5179 70.9928 24.0597 71.0515 24.6815L75.5713 23.4829C75.3022 22.8687 74.9204 22.4485 74.4259 22.2224C73.9314 21.9962 73.4135 21.9549 72.8722 22.0985ZM78.8939 20.7189C79.0593 19.777 79.6518 19.1709 80.6712 18.9006L80.9978 20.132C80.4132 20.258 79.9577 20.543 79.6312 20.9868C79.3047 21.4307 79.2396 22.0225 79.4358 22.7623L80.3867 26.3483L79.2094 26.6605L77.4152 19.8944L78.5925 19.5822L78.8939 20.7189ZM83.1714 20.3232C83.2408 20.5849 83.4278 20.7622 83.7325 20.8552C84.0348 20.9392 84.384 20.9817 84.7802 20.9829C85.174 20.975 85.5726 20.9852 85.976 21.0134C86.377 21.0326 86.7477 21.1564 87.0883 21.3847C87.4265 21.604 87.6566 21.9437 87.7786 22.4038C87.9413 23.0173 87.8326 23.5723 87.4525 24.069C87.0815 24.5633 86.5261 24.9085 85.7863 25.1047C85.1278 25.2794 84.5256 25.2845 83.98 25.1202C83.4343 24.956 82.9988 24.6611 82.6736 24.2355L83.5342 23.3845C83.7286 23.6806 83.9997 23.8839 84.3477 23.9944C84.6956 24.1049 85.0771 24.1051 85.4921 23.9951C85.88 23.8922 86.1811 23.7351 86.3955 23.5238C86.6074 23.3034 86.6715 23.0354 86.5878 22.7196C86.5184 22.458 86.3325 22.2852 86.0302 22.2012C85.7256 22.1082 85.3763 22.0656 84.9825 22.0735C84.5863 22.0723 84.1865 22.0576 83.7832 22.0294C83.3798 22.0012 83.009 21.8775 82.6708 21.6581C82.3326 21.4388 82.1037 21.1036 81.9841 20.6526C81.8286 20.0662 81.9262 19.5237 82.2768 19.0252C82.6364 18.5243 83.159 18.1829 83.8446 18.0011C84.395 17.8552 84.9156 17.8523 85.4066 17.9924C85.9042 18.1212 86.3199 18.3779 86.6537 18.7625L85.8129 19.5793C85.4162 19.0665 84.857 18.9058 84.1353 19.0972C83.8015 19.1857 83.5389 19.3423 83.3474 19.5669C83.1535 19.7824 83.0948 20.0346 83.1714 20.3232Z" fill="#777B87"/>
<defs>
<filter id="filter0_d_160_5000" x="2.10156" y="2.40186" width="105.297" height="53.4438" filterUnits="userSpaceOnUse" color-interpolation-filters="sRGB">
<feFlood flood-opacity="0" result="BackgroundImageFix"/>
<feColorMatrix in="SourceAlpha" type="matrix" values="0 0 0 0 0 0 0 0 0 0 0 0 0 0 0 0 0 0 127 0" result="hardAlpha"/>
<feOffset dx="1" dy="1"/>
<feComposite in2="hardAlpha" operator="out"/>
<feColorMatrix type="matrix" values="0 0 0 0 0.968627 0 0 0 0 0.501961 0 0 0 0 0 0 0 0 1 0"/>
<feBlend mode="normal" in2="BackgroundImageFix" result="effect1_dropShadow_160_5000"/>
<feBlend mode="normal" in="SourceGraphic" in2="effect1_dropShadow_160_5000" result="shape"/>
</filter>
</defs>
</svg>
