<svg width="66" height="50" viewBox="0 0 66 50" fill="none" xmlns="http://www.w3.org/2000/svg">
<g filter="url(#filter0_d_160_5006)">
<rect x="11.6201" y="0.316406" width="59.5" height="26.5" rx="8" transform="rotate(24.6443 11.6201 0.316406)" fill="white"/>
<rect x="11.8661" y="0.979355" width="58.5" height="25.5" rx="7.5" transform="rotate(24.6443 11.8661 0.979355)" stroke="#118E52"/>
</g>
<path d="M20.5726 24.3723C19.86 24.0454 19.326 23.598 18.9704 23.03C18.6222 22.4653 18.4797 21.8454 18.5429 21.1703L19.6457 21.0689C19.5201 22.1291 19.9882 22.9028 21.0498 23.3898C21.5733 23.63 22.0216 23.708 22.3947 23.6239C22.7711 23.5326 23.041 23.3087 23.2044 22.9524C23.3712 22.5889 23.3582 22.2528 23.1653 21.9443C22.9723 21.6357 22.599 21.2312 22.0453 20.7307C21.772 20.4821 21.5651 20.2904 21.4246 20.1555C21.2874 20.0133 21.1199 19.8221 20.9221 19.5817C20.7349 19.3374 20.6095 19.1214 20.546 18.9339C20.4857 18.739 20.4548 18.5091 20.453 18.2443C20.4586 17.9828 20.5247 17.7139 20.6515 17.4376C20.9551 16.7759 21.4279 16.3591 22.0701 16.1872C22.7156 16.0081 23.3728 16.0719 24.0418 16.3788C24.6453 16.6557 25.0988 17.0486 25.4022 17.5575C25.713 18.0697 25.8659 18.6284 25.8612 19.2335L24.7853 19.334C24.8183 18.3986 24.4204 17.7407 23.5915 17.3605C23.177 17.1703 22.7958 17.1187 22.4479 17.2055C22.1 17.2923 21.846 17.5103 21.6859 17.8593C21.5324 18.1938 21.5356 18.5033 21.6955 18.7879C21.8554 19.0725 22.1865 19.4444 22.6887 19.9037C22.8696 20.0659 22.997 20.1815 23.0709 20.2506C23.1448 20.3198 23.256 20.4324 23.4044 20.5885C23.5601 20.7479 23.6715 20.8695 23.7388 20.9531C23.806 21.0368 23.894 21.152 24.0027 21.2987C24.1187 21.4487 24.1964 21.5768 24.2358 21.6828C24.2751 21.7889 24.3171 21.9182 24.3615 22.0706C24.4166 22.2191 24.441 22.3579 24.4346 22.487C24.4282 22.6161 24.4061 22.76 24.3685 22.9188C24.3415 23.0736 24.2913 23.231 24.2179 23.391C23.911 24.0599 23.4222 24.4826 22.7516 24.659C22.0842 24.8282 21.3579 24.7326 20.5726 24.3723ZM31.5799 22.6492L32.5288 23.0846L30.0269 28.538L29.078 28.1027L29.5083 27.1647C28.7054 27.6677 27.8532 27.7124 26.9515 27.2988C26.188 26.9485 25.664 26.3737 25.3795 25.5742C25.0982 24.7674 25.1411 23.9641 25.508 23.1643C25.875 22.3644 26.4543 21.8116 27.2459 21.5059C28.0408 21.1928 28.82 21.2115 29.5835 21.5617C30.4852 21.9754 31.0072 22.6505 31.1496 23.5872L31.5799 22.6492ZM27.4918 26.4376C28.0444 26.6912 28.5912 26.7176 29.1322 26.5169C29.6765 26.3089 30.0754 25.9286 30.3289 25.376C30.5825 24.8234 30.6089 24.2766 30.4082 23.7356C30.2108 23.1874 29.8358 22.7865 29.2832 22.533C28.7378 22.2828 28.193 22.2617 27.6487 22.4696C27.1077 22.6703 26.7105 23.047 26.457 23.5996C26.2034 24.1522 26.1753 24.7027 26.3727 25.2509C26.5734 25.7919 26.9465 26.1875 27.4918 26.4376ZM31.5191 29.2226L35.1719 21.2605L36.1208 21.6959L32.468 29.658L31.5191 29.2226ZM35.6863 28.3619C35.5573 28.8924 35.6056 29.3723 35.8312 29.8014C36.0641 30.2339 36.4387 30.5686 36.9549 30.8055C37.6748 31.1357 38.3201 31.1105 38.8908 30.7298L39.4878 31.5582C38.58 32.1363 37.5917 32.1802 36.5228 31.6898C35.6575 31.2929 35.0756 30.7002 34.7771 29.912C34.4892 29.1198 34.5354 28.3092 34.9157 27.4803C35.2927 26.6586 35.8717 26.0969 36.6527 25.795C37.4337 25.4932 38.2459 25.5358 39.0894 25.9227C39.8892 26.2897 40.4099 26.8718 40.6514 27.6692C40.9035 28.4626 40.8478 29.2556 40.4842 30.0481C40.4208 30.1863 40.3449 30.3231 40.2563 30.4585L35.6863 28.3619ZM38.679 26.8171C38.1701 26.5836 37.6816 26.5355 37.2137 26.6729C36.7491 26.8031 36.3667 27.0897 36.0666 27.533L39.7095 29.2042C39.8664 28.6513 39.8429 28.1652 39.6391 27.7461C39.4354 27.3269 39.1153 27.0173 38.679 26.8171ZM42.8149 29.5859C42.7182 29.7968 42.7452 30.016 42.8961 30.2436C43.0502 30.464 43.258 30.6826 43.5194 30.8993C43.7842 31.1088 44.0423 31.3328 44.2937 31.5714C44.5485 31.8027 44.7263 32.0867 44.827 32.4234C44.9312 32.7528 44.8982 33.1029 44.728 33.4738C44.5012 33.9682 44.1267 34.2761 43.6045 34.3974C43.0897 34.5221 42.5341 34.4476 41.9378 34.1741C41.407 33.9306 41.006 33.6057 40.7346 33.1996C40.4632 32.7935 40.336 32.361 40.3528 31.9022L41.386 31.8085C41.3532 32.1103 41.4217 32.3926 41.5916 32.6554C41.7615 32.9182 42.0137 33.1263 42.3482 33.2797C42.6608 33.4232 42.9456 33.4834 43.2026 33.4605C43.4629 33.4303 43.6515 33.2879 43.7682 33.0334C43.8649 32.8226 43.8362 32.607 43.6821 32.3866C43.5313 32.159 43.3235 31.9404 43.0587 31.7309C42.7973 31.5142 42.5408 31.2865 42.2894 31.0479C42.038 30.8094 41.8602 30.5254 41.7561 30.196C41.652 29.8665 41.6833 29.52 41.8501 29.1565C42.067 28.6838 42.4272 28.3782 42.9309 28.2396C43.4418 28.1044 43.9736 28.1635 44.5262 28.417C44.9698 28.6205 45.3157 28.9024 45.5641 29.2628C45.823 29.6193 45.958 30.0157 45.9691 30.452L44.9677 30.5339C44.9849 29.9785 44.7026 29.5674 44.1209 29.3005C43.8519 29.1771 43.5928 29.1374 43.3437 29.1816C43.0979 29.2184 42.9217 29.3532 42.8149 29.5859Z" fill="#777B87"/>
<defs>
<filter id="filter0_d_160_5006" x="3.1748" y="2.92163" width="60.9209" height="44.6863" filterUnits="userSpaceOnUse" color-interpolation-filters="sRGB">
<feFlood flood-opacity="0" result="BackgroundImageFix"/>
<feColorMatrix in="SourceAlpha" type="matrix" values="0 0 0 0 0 0 0 0 0 0 0 0 0 0 0 0 0 0 127 0" result="hardAlpha"/>
<feOffset dx="1" dy="1"/>
<feComposite in2="hardAlpha" operator="out"/>
<feColorMatrix type="matrix" values="0 0 0 0 0.0666667 0 0 0 0 0.556863 0 0 0 0 0.321569 0 0 0 1 0"/>
<feBlend mode="normal" in2="BackgroundImageFix" result="effect1_dropShadow_160_5006"/>
<feBlend mode="normal" in="SourceGraphic" in2="effect1_dropShadow_160_5006" result="shape"/>
</filter>
</defs>
</svg>
